<svg width="16" height="16" viewBox="0 0 16 16" fill="none" xmlns="http://www.w3.org/2000/svg">
<g clip-path="url(#clip0)">
<path d="M12.4452 7.37568L5.32498 0.255608C5.16029 0.0907963 4.94046 2.86733e-07 4.70605 2.45748e-07C4.47165 2.04764e-07 4.25181 0.0907962 4.08713 0.255608L3.56278 0.779831C3.22158 1.12142 3.22158 1.6766 3.56278 2.01767L9.54179 7.99668L3.55614 13.9823C3.39146 14.1471 3.30053 14.3668 3.30053 14.6011C3.30053 14.8357 3.39146 15.0554 3.55614 15.2203L4.0805 15.7444C4.24531 15.9092 4.46501 16 4.69942 16C4.93382 16 5.15366 15.9092 5.31834 15.7444L12.4452 8.61782C12.6102 8.45249 12.7009 8.23174 12.7004 7.99707C12.7009 7.7615 12.6103 7.54088 12.4452 7.37568Z" fill="#FB837A"/>
</g>
<defs>
<clipPath id="clip0">
<rect width="16" height="16" rx="5" fill="white"/>
</clipPath>
</defs>
</svg>
