<svg width="46" height="45" viewBox="0 0 46 45" fill="none" xmlns="http://www.w3.org/2000/svg">
<path d="M44.0694 21.5625C44.5944 21.5625 45.0069 21.975 45.0069 22.5C45.0069 23.025 44.5944 23.4375 44.0694 23.4375H43.1319V21.5625H44.0694Z" fill="#FB837A"/>
<path d="M23.4444 21.5625H43.1319V23.4375H23.4444V21.5625Z" fill="#FB837A"/>
<path d="M40.3125 45H22.5C23.025 45 23.4375 44.5875 23.4375 44.0625V43.125H40.3125C41.8687 43.125 43.125 41.8687 43.125 40.3125V23.4375H44.0625C44.5875 23.4375 45 23.025 45 22.5V40.3125C45 42.9 42.9 45 40.3125 45Z" fill="#FB837A"/>
<path d="M45 4.6875V22.5C45 21.975 44.5875 21.5625 44.0625 21.5625H43.125V4.6875C43.125 3.13125 41.8687 1.875 40.3125 1.875H23.4375V0.9375C23.4375 0.4125 23.025 0 22.5 0H40.3125C42.9 0 45 2.1 45 4.6875Z" fill="#FB837A"/>
<path d="M37.5068 11.25C38.0318 11.25 38.4443 11.6625 38.4443 12.1875C38.4443 12.7125 38.0318 13.125 37.5068 13.125H30.0069C29.4819 13.125 29.0694 12.7125 29.0694 12.1875C29.0694 11.6625 29.4819 11.25 30.0069 11.25H37.5068Z" fill="#FB837A"/>
<path d="M37.5068 30C38.0318 30 38.4443 30.4125 38.4443 30.9375C38.4443 31.4625 38.0318 31.875 37.5068 31.875H30.0069C29.4819 31.875 29.0694 31.4625 29.0694 30.9375C29.0694 30.4125 29.4819 30 30.0069 30H37.5068Z" fill="#FB837A"/>
<path d="M37.5068 35.625C38.0318 35.625 38.4443 36.0375 38.4443 36.5625C38.4443 37.0875 38.0318 37.5 37.5068 37.5H30.0069C29.4819 37.5 29.0694 37.0875 29.0694 36.5625C29.0694 36.0375 29.4819 35.625 30.0069 35.625H37.5068Z" fill="#FB837A"/>
<path d="M23.4306 43.125V44.0625C23.4306 44.5875 23.0181 45 22.4931 45C21.9681 45 21.5556 44.5875 21.5556 44.0625V43.125H23.4306Z" fill="#FB837A"/>
<path d="M21.5556 23.4375H23.4306V43.125H21.5556V23.4375Z" fill="#FB837A"/>
<path d="M21.5556 21.5625H23.4306V23.4375H21.5556V21.5625Z" fill="#FB837A"/>
<path d="M21.5556 1.875H23.4306V21.5625H21.5556V1.875Z" fill="#FB837A"/>
<path d="M23.4306 0.9375V1.875H21.5556V0.9375C21.5556 0.4125 21.9681 0 22.4931 0C23.0181 0 23.4306 0.4125 23.4306 0.9375Z" fill="#FB837A"/>
<path d="M1.8681 21.5625H21.5556V23.4375H1.8681V21.5625Z" fill="#FB837A"/>
<path d="M15.0069 11.25C15.5319 11.25 15.9444 11.6625 15.9444 12.1875C15.9444 12.7125 15.5319 13.125 15.0069 13.125H12.1944V11.25H15.0069Z" fill="#FB837A"/>
<path d="M14.7188 35.9062C15.0938 36.2625 15.0938 36.8625 14.7188 37.2188C14.55 37.4063 14.3063 37.5 14.0625 37.5C13.8188 37.5 13.575 37.4063 13.4063 37.2188L11.25 35.0625L12.5625 33.75L14.7188 35.9062Z" fill="#FB837A"/>
<path d="M13.4063 30.2813C13.7625 29.9062 14.3625 29.9062 14.7188 30.2813C15.0938 30.6375 15.0938 31.2375 14.7188 31.5938L12.5625 33.75L11.25 32.4375L13.4063 30.2813Z" fill="#FB837A"/>
<path d="M9.93204 33.748L11.2446 32.4355L12.5572 33.748L11.2446 35.0606L9.93204 33.748Z" fill="#FB837A"/>
<path d="M12.1806 13.125V15.9375C12.1806 16.4625 11.7681 16.875 11.2431 16.875C10.7181 16.875 10.3056 16.4625 10.3056 15.9375V13.125H12.1806Z" fill="#FB837A"/>
<path d="M10.3056 11.25H12.1806V13.125H10.3056V11.25Z" fill="#FB837A"/>
<path d="M12.1806 8.4375V11.25H10.3056V8.4375C10.3056 7.9125 10.7181 7.5 11.2431 7.5C11.7681 7.5 12.1806 7.9125 12.1806 8.4375Z" fill="#FB837A"/>
<path d="M11.2431 32.4375L9.9306 33.75L7.77435 31.5938C7.39935 31.2375 7.39935 30.6375 7.77435 30.2813C8.1306 29.9062 8.7306 29.9062 9.08685 30.2813L11.2431 32.4375Z" fill="#FB837A"/>
<path d="M10.3194 11.25V13.125H7.50686C6.98187 13.125 6.56937 12.7125 6.56937 12.1875C6.56937 11.6625 6.98187 11.25 7.50686 11.25H10.3194Z" fill="#FB837A"/>
<path d="M9.08685 37.2188C8.9181 37.4063 8.67435 37.5 8.4306 37.5C8.18685 37.5 7.9431 37.4063 7.77435 37.2188C7.39935 36.8625 7.39935 36.2625 7.77435 35.9062L9.9306 33.75L11.2431 35.0625L9.08685 37.2188Z" fill="#FB837A"/>
<path d="M1.875 21.5625V23.4375H0.9375C0.4125 23.4375 0 23.025 0 22.5C0 21.975 0.4125 21.5625 0.9375 21.5625H1.875Z" fill="#FB837A"/>
<path d="M0 4.6875C0 2.1 2.1 0 4.6875 0H22.5C21.975 0 21.5625 0.4125 21.5625 0.9375V1.875H4.6875C3.13125 1.875 1.875 3.13125 1.875 4.6875V21.5625H0.9375C0.4125 21.5625 0 21.975 0 22.5V4.6875Z" fill="#FB837A"/>
<path d="M1.875 40.3125C1.875 41.8687 3.13125 43.125 4.6875 43.125H21.5625V44.0625C21.5625 44.5875 21.975 45 22.5 45H4.6875C2.1 45 0 42.9 0 40.3125V22.5C0 23.025 0.4125 23.4375 0.9375 23.4375H1.875V40.3125Z" fill="#FB837A"/>
</svg>
