<svg width="16" height="17" viewBox="0 0 16 17" fill="none" xmlns="http://www.w3.org/2000/svg">
<g clip-path="url(#clip0)">
<path d="M8.62432 12.9449L15.7444 5.82473C15.9092 5.66005 16 5.44021 16 5.20581C16 4.97141 15.9092 4.75157 15.7444 4.58689L15.2202 4.06253C14.8786 3.72133 14.3234 3.72133 13.9823 4.06253L8.00332 10.0415L2.01768 4.0559C1.85286 3.89122 1.63316 3.80029 1.39888 3.80029C1.16435 3.80029 0.944643 3.89122 0.779701 4.0559L0.255608 4.58025C0.0907964 4.74507 9.02773e-07 4.96477 8.92527e-07 5.19918C8.82281e-07 5.43358 0.0907964 5.65342 0.255608 5.8181L7.38218 12.9449C7.54752 13.11 7.76826 13.2007 8.00293 13.2002C8.2385 13.2007 8.45912 13.11 8.62432 12.9449Z" fill="white"/>
</g>
<defs>
<clipPath id="clip0">
<rect width="16" height="16" fill="white" transform="translate(16 0.5) rotate(90)"/>
</clipPath>
</defs>
</svg>
