<svg width="20" height="21" viewBox="0 0 20 21" fill="none" xmlns="http://www.w3.org/2000/svg">
<path d="M11.7674 1.23174C12.7437 2.20805 12.7437 3.79096 11.7674 4.76727C10.7911 5.74358 9.20816 5.74358 8.23186 4.76727C7.25556 3.79096 7.25556 2.20805 8.23186 1.23174C9.20813 0.255435 10.791 0.255435 11.7674 1.23174Z" fill="#3C545C"/>
<path d="M11.7678 16.2322C12.7441 17.2085 12.7441 18.7915 11.7678 19.7678C10.7915 20.7441 9.20856 20.7441 8.23226 19.7678C7.25595 18.7915 7.25595 17.2085 8.23226 16.2322C9.20852 15.2559 10.7914 15.2559 11.7678 16.2322Z" fill="#3C545C"/>
<path d="M11.7678 8.73223C12.7441 9.70854 12.7441 11.2915 11.7678 12.2678C10.7915 13.2441 9.20856 13.2441 8.23226 12.2678C7.25595 11.2915 7.25595 9.70854 8.23226 8.73223C9.20852 7.75592 10.7914 7.75592 11.7678 8.73223Z" fill="#3C545C"/>
</svg>
