<svg width="20" height="21" viewBox="0 0 20 21" fill="none" xmlns="http://www.w3.org/2000/svg">
<g clip-path="url(#clip0)">
<path d="M15.3022 7.35935C15.2475 7.24201 15.1298 7.16669 15.0002 7.16669H11.0502L14.9485 1.01168C15.0135 0.909024 15.0175 0.779024 14.9588 0.672696C14.9002 0.566016 14.7881 0.5 14.6668 0.5H9.33348C9.20715 0.5 9.0918 0.571328 9.03516 0.684336L4.03515 10.6844C3.98347 10.7874 3.98913 10.91 4.0498 11.0083C4.11081 11.1067 4.21781 11.1667 4.33347 11.1667H7.76113L4.02613 20.0373C3.96245 20.189 4.01913 20.365 4.15945 20.451C4.21343 20.484 4.27343 20.5 4.33312 20.5C4.42878 20.5 4.52312 20.459 4.58847 20.3817L15.2552 7.71498C15.3388 7.61568 15.3568 7.47701 15.3022 7.35935Z" fill="white"/>
</g>
<defs>
<clipPath id="clip0">
<rect width="20" height="20" fill="white" transform="translate(0 0.5)"/>
</clipPath>
</defs>
</svg>
