<svg width="20" height="20" viewBox="0 0 20 20" fill="none" xmlns="http://www.w3.org/2000/svg">
<path d="M18.5721 9.85409C18.4789 9.59914 18.1967 9.46837 17.9432 9.56191L13.3488 11.2448L17.0626 7.53387C17.1546 7.44239 17.2059 7.31737 17.2059 7.18702C17.2059 7.05721 17.1545 6.93237 17.0626 6.84011L14.1898 3.96567C13.9982 3.77411 13.6879 3.77411 13.4963 3.96567L9.85391 7.60556L11.8968 2.75964C11.9472 2.63977 11.9479 2.50469 11.8993 2.38433C11.8502 2.26397 11.7553 2.16789 11.6353 2.11758L7.89102 0.538778C7.64116 0.432282 7.35352 0.550948 7.24847 0.800085L5.23097 5.586V0.490404C5.23097 0.219653 5.01132 0 4.74057 0H0.490404C0.219653 0 0 0.219653 0 0.490404V19.1257C0 19.3965 0.219653 19.6162 0.490404 19.6162H4.74057C4.80045 19.6162 4.8573 19.6037 4.91027 19.5842C4.96331 19.6034 5.01853 19.6162 5.07598 19.6162C5.13235 19.6162 5.18914 19.6066 5.24472 19.5861L19.6781 14.2984C19.9322 14.2051 20.0631 13.9235 19.9699 13.6694L18.5721 9.85409ZM2.89901 18.6353H0.980808V17.8264V17.2944V16.9304V15.6683V0.980808H4.25017V7.91251V9.17479V10.4374V13.2058V13.8987V14.5781V14.5921V17.6303V18.1405V18.2967V18.3241V18.6354H4.16153H3.86765H2.89901V18.6353ZM10.8026 2.83066L8.01489 9.44348L7.50978 10.6414L7.00454 11.8393L6.14216 13.8848L5.62124 15.1201L5.23097 16.047V15.2632V14.2189V13.612V12.9185V12.2257V8.11104L7.96186 1.63347L10.8026 2.83066ZM6.88037 14.6588L7.40128 13.4236L8.84392 10.0013L13.8425 5.00605L16.0222 7.18672L11.1584 12.0475L9.50839 13.6962L5.6687 17.5332L6.88037 14.6588ZM6.51159 18.0776L11.6985 12.8942L17.8199 10.6516L18.8802 13.5462L6.51159 18.0776Z" fill="#C0C9CD"/>
<path d="M2.61553 16.6191C2.59397 16.6191 2.57369 16.6239 2.5528 16.6253C2.36905 16.6418 2.20655 16.7265 2.09013 16.8564C2.01336 16.942 1.95669 17.046 1.9286 17.1616C1.91582 17.2153 1.90704 17.2702 1.90704 17.3276C1.90704 17.4834 1.95875 17.6258 2.04369 17.7426C2.17247 17.9195 2.37971 18.0357 2.61553 18.0357C2.64979 18.0357 2.68255 18.0307 2.7156 18.0255C2.85703 18.0054 2.98454 17.9441 3.08595 17.8531C3.13493 17.809 3.17816 17.7592 3.21345 17.703C3.27158 17.611 3.30699 17.5044 3.31705 17.3901C3.31898 17.369 3.32328 17.3486 3.32328 17.3272C3.32401 16.9361 3.00682 16.6191 2.61553 16.6191Z" fill="#C0C9CD"/>
</svg>
