<svg width="30" height="30" viewBox="0 0 30 30" fill="none" xmlns="http://www.w3.org/2000/svg">
<g clip-path="url(#clip0)">
<path d="M25.8331 0H4.16642C3.85978 0 3.61084 0.248861 3.61084 0.555583V29.4445C3.61084 29.7511 3.8597 30.0001 4.16642 30.0001H25.8331C26.1397 30.0001 26.3887 29.7512 26.3887 29.4445V0.555583C26.3887 0.248861 26.1397 0 25.8331 0ZM25.2775 28.8889H4.72201V1.11108H25.2776V28.8889H25.2775Z" fill="#ECF0F3"/>
<path d="M23.0558 7.77783H14.1669C13.8603 7.77783 13.6113 8.02669 13.6113 8.33341C13.6113 8.64013 13.8602 8.88899 14.1669 8.88899H23.0558C23.3625 8.88899 23.6114 8.64013 23.6114 8.33341C23.6114 8.02669 23.3625 7.77783 23.0558 7.77783Z" fill="#ECF0F3"/>
<path d="M23.0554 11.1113H9.72209C9.41545 11.1113 9.1665 11.3602 9.1665 11.6669C9.1665 11.9736 9.41537 12.2225 9.72209 12.2225H23.0554C23.3621 12.2225 23.611 11.9736 23.611 11.6669C23.6109 11.3603 23.3621 11.1113 23.0554 11.1113Z" fill="#ECF0F3"/>
<path d="M23.0554 14.4443H9.72209C9.41545 14.4443 9.1665 14.6932 9.1665 14.9999C9.1665 15.3066 9.41537 15.5555 9.72209 15.5555H23.0554C23.3621 15.5555 23.611 15.3066 23.611 14.9999C23.611 14.6932 23.3621 14.4443 23.0554 14.4443Z" fill="#ECF0F3"/>
<path d="M23.0554 17.7778H9.72209C9.41545 17.7778 9.1665 18.0267 9.1665 18.3334C9.1665 18.6401 9.41537 18.889 9.72209 18.889H23.0554C23.3621 18.889 23.611 18.6401 23.611 18.3334C23.611 18.0267 23.3621 17.7778 23.0554 17.7778Z" fill="#ECF0F3"/>
<path d="M23.0554 21.1108H9.72209C9.41545 21.1108 9.1665 21.3597 9.1665 21.6664C9.1665 21.9731 9.41537 22.222 9.72209 22.222H23.0554C23.3621 22.222 23.611 21.9731 23.611 21.6664C23.611 21.3597 23.3621 21.1108 23.0554 21.1108Z" fill="#ECF0F3"/>
<path d="M14.1665 24.4443H9.72209C9.41545 24.4443 9.1665 24.6932 9.1665 24.9999C9.1665 25.3066 9.41536 25.5555 9.72209 25.5555H14.1665C14.4731 25.5555 14.7221 25.3066 14.7221 24.9999C14.7221 24.6932 14.4731 24.4443 14.1665 24.4443Z" fill="#ECF0F3"/>
</g>
<defs>
<clipPath id="clip0">
<rect width="30" height="30" fill="white"/>
</clipPath>
</defs>
</svg>
