<svg width="20" height="20" viewBox="0 0 20 20" fill="none" xmlns="http://www.w3.org/2000/svg">
<g clip-path="url(#clip0)">
<path d="M2.94104 17.0591C3.85741 17.9755 4.92485 18.695 6.11381 19.1979C7.34552 19.7189 8.65304 19.983 10.0001 19.983C11.3471 19.983 12.6546 19.7189 13.8864 19.1979C15.0753 18.695 16.1428 17.9754 17.0592 17.0591C17.9755 16.1427 18.6951 15.0753 19.198 13.8863C19.7189 12.6546 19.9831 11.3471 19.9831 10.0001C19.9831 8.65302 19.7189 7.3455 19.198 6.11381C18.6951 4.92485 17.9755 3.85741 17.0592 2.94105C16.1428 2.02468 15.0753 1.30508 13.8864 0.802211C12.6546 0.281212 11.3471 0.0170898 10.0001 0.0170898C8.65304 0.0170898 7.34552 0.281246 6.11381 0.802211C4.92485 1.30508 3.85741 2.02471 2.94104 2.94105C2.02468 3.85738 1.30508 4.92485 0.802176 6.11378C0.281246 7.3455 0.0170898 8.65302 0.0170898 10.0001C0.0170898 11.3471 0.281246 12.6546 0.80221 13.8863C1.30508 15.0753 2.02471 16.1427 2.94104 17.0591ZM10.0001 1.47446C14.7087 1.47446 18.5257 5.29151 18.5257 10.0001C18.5257 14.7086 14.7087 18.5257 10.0001 18.5257C5.2915 18.5257 1.47446 14.7086 1.47446 10.0001C1.47446 5.29151 5.2915 1.47446 10.0001 1.47446Z" fill="white" fill-opacity="0.25"/>
<path d="M10 20.0009C8.65058 20.0009 7.34085 19.7363 6.10709 19.2145C4.91609 18.7107 3.84681 17.9899 2.92895 17.0721C2.01102 16.1541 1.2902 15.0848 0.786481 13.8938C0.264598 12.66 0 11.3502 0 10.001C0 8.6517 0.264598 7.34191 0.786447 6.10804C1.29016 4.91711 2.01102 3.84783 2.92892 2.9299C3.84681 2.01197 4.91613 1.29114 6.10706 0.787425C7.34092 0.265575 8.65068 0.000976562 9.99997 0.000976562C11.3494 0.000976562 12.6591 0.265575 13.8928 0.787459C15.0838 1.29118 16.1531 2.01204 17.0711 2.92993C17.989 3.84793 18.7098 4.91721 19.2135 6.10808C19.7354 7.34194 20 8.6517 20 10.001C20 11.3502 19.7354 12.66 19.2135 13.8939C18.7098 15.0848 17.989 16.1541 17.0711 17.0721C16.1532 17.9899 15.0838 18.7107 13.8928 19.2146C12.6591 19.7363 11.3494 20.0009 10 20.0009ZM10 0.0349954C8.65527 0.0349954 7.35 0.298676 6.12036 0.818756C4.93348 1.32077 3.8678 2.03915 2.953 2.95395C2.03817 3.86879 1.31979 4.93443 0.817778 6.12128C0.297699 7.35096 0.0340188 8.65626 0.0340188 10.001C0.0340188 11.3457 0.297699 12.651 0.817778 13.8806C1.31979 15.0675 2.03817 16.1332 2.953 17.048C3.86777 17.9627 4.93341 18.6811 6.12036 19.1832C7.34987 19.7032 8.65517 19.9669 10 19.9669C11.3448 19.9669 12.6501 19.7032 13.8796 19.1832C15.0666 18.6811 16.1322 17.9627 17.047 17.048C17.9619 16.1331 18.6802 15.0674 19.1822 13.8806C19.7023 12.651 19.966 11.3457 19.966 10.001C19.966 8.65626 19.7023 7.35096 19.1822 6.12134C18.6802 4.93453 17.9619 3.86889 17.047 2.95398C16.1322 2.03918 15.0665 1.32081 13.8796 0.81879C12.6501 0.298676 11.3448 0.0349954 10 0.0349954ZM10 18.5436C7.71819 18.5436 5.57293 17.655 3.95945 16.0415C2.34597 14.428 1.45737 12.2828 1.45737 10.001C1.45737 7.71918 2.34594 5.57391 3.95945 3.96043C5.57293 2.34695 7.71819 1.45834 10 1.45834C12.2818 1.45834 14.427 2.34695 16.0405 3.96043C17.654 5.57395 18.5426 7.71918 18.5426 10.001C18.5426 12.2828 17.654 14.428 16.0405 16.0415C14.427 17.655 12.2818 18.5436 10 18.5436ZM10 1.49236C7.72727 1.49236 5.59058 2.37743 3.9835 3.98448C2.37645 5.59157 1.49138 7.72826 1.49138 10.001C1.49138 12.2737 2.37645 14.4104 3.9835 16.0174C5.59055 17.6245 7.72727 18.5096 10 18.5096C12.2727 18.5096 14.4094 17.6245 16.0165 16.0174C17.6235 14.4104 18.5086 12.2737 18.5086 10.001C18.5086 7.72826 17.6235 5.59154 16.0165 3.98448C14.4094 2.3774 12.2727 1.49236 10 1.49236Z" fill="white" fill-opacity="0.25"/>
<path d="M7.79012 13.6344C7.92677 13.771 8.11211 13.8477 8.30537 13.8477C8.49867 13.8477 8.68397 13.771 8.82062 13.6344L15.0592 7.39579C15.3438 7.11123 15.3438 6.64986 15.0592 6.36529C14.7746 6.08073 14.3133 6.08069 14.0287 6.36529L8.30537 12.0886L5.97147 9.7547C5.6869 9.4701 5.22553 9.4701 4.94097 9.7547C4.6564 10.0393 4.6564 10.5006 4.94097 10.7852L7.79012 13.6344Z" fill="white" fill-opacity="0.25"/>
<path d="M8.30542 13.8647C8.10624 13.8647 7.91896 13.7871 7.77812 13.6463L4.92898 10.7971C4.63826 10.5064 4.63826 10.0333 4.92898 9.74255C5.06982 9.60168 5.25709 9.52412 5.45627 9.52412C5.65545 9.52412 5.84269 9.60168 5.98356 9.74255L8.30545 12.0644L14.0167 6.35317C14.1575 6.21229 14.3448 6.13477 14.544 6.13477C14.7431 6.13477 14.9304 6.21233 15.0713 6.35317C15.2122 6.494 15.2897 6.68128 15.2897 6.88046C15.2897 7.07964 15.2122 7.26688 15.0713 7.40775L8.83271 13.6463C8.6919 13.7871 8.50463 13.8647 8.30542 13.8647ZM5.45627 9.55817C5.26618 9.55817 5.08747 9.6322 4.95307 9.76664C4.67561 10.0441 4.67561 10.4956 4.95307 10.7731L7.80221 13.6222C7.93662 13.7566 8.11532 13.8307 8.30542 13.8307C8.49555 13.8307 8.67425 13.7566 8.80866 13.6222L15.0472 7.3837C15.1816 7.24929 15.2557 7.07055 15.2557 6.88049C15.2557 6.69043 15.1816 6.51166 15.0472 6.37725C14.9128 6.24281 14.7341 6.16882 14.544 6.16882C14.3539 6.16882 14.1751 6.24284 14.0407 6.37725L8.30542 12.1126L5.95948 9.76664C5.82507 9.6322 5.64637 9.55817 5.45627 9.55817Z" fill="white" fill-opacity="0.25"/>
</g>
<defs>
<clipPath id="clip0">
<rect width="20" height="20" fill="white"/>
</clipPath>
</defs>
</svg>
