<svg width="20" height="21" viewBox="0 0 20 21" fill="none" xmlns="http://www.w3.org/2000/svg">
<g clip-path="url(#clip0)">
<g clip-path="url(#clip1)">
<path d="M10 0.5C4.48645 0.5 0 4.98566 0 10.5C0 16.0143 4.48645 20.5 10 20.5C15.5143 20.5 20 16.0143 20 10.5C20 4.98566 15.5136 0.5 10 0.5ZM10 18.9508C5.34004 18.9508 1.54918 15.16 1.54918 10.5C1.54918 5.84004 5.34004 2.04918 10 2.04918C14.66 2.04918 18.4508 5.84004 18.4508 10.5C18.4508 15.16 14.66 18.9508 10 18.9508Z" fill="white"/>
<path d="M13.8731 9.65576H6.12715C5.69957 9.65576 5.35254 10.0028 5.35254 10.4304C5.35254 10.858 5.69957 11.205 6.12715 11.205H13.8731C14.3007 11.205 14.6477 10.858 14.6477 10.4304C14.6477 10.0028 14.3007 9.65576 13.8731 9.65576Z" fill="white"/>
</g>
</g>
<defs>
<clipPath id="clip0">
<rect width="20" height="20" fill="white" transform="translate(0 0.5)"/>
</clipPath>
<clipPath id="clip1">
<rect width="20" height="20" fill="white" transform="translate(0 0.5)"/>
</clipPath>
</defs>
</svg>
