<svg width="26" height="30" viewBox="0 0 26 30" fill="none" xmlns="http://www.w3.org/2000/svg">
<path d="M6.83668 19.3009C6.83668 18.8027 6.49097 18.5056 5.881 18.5056C5.63192 18.5056 5.46323 18.5302 5.375 18.5537V20.1522C5.47947 20.1757 5.6079 20.1836 5.78493 20.1836C6.43509 20.1836 6.83668 19.8551 6.83668 19.3009Z" fill="black"/>
<path d="M10.6127 18.5226C10.3395 18.5226 10.163 18.5462 10.0586 18.5706V22.1108C10.1631 22.1354 10.3318 22.1354 10.4843 22.1354C11.5924 22.1432 12.3151 21.5332 12.3151 20.2407C12.3229 19.1168 11.6644 18.5226 10.6127 18.5226Z" fill="black"/>
<path d="M17.6288 0H5.57954C3.81926 0 2.38658 1.43367 2.38658 3.19295V14.9999H2.07472C1.36427 14.9999 0.788086 15.5756 0.788086 16.2866V24.0896C0.788086 24.8006 1.3642 25.3762 2.07472 25.3762H2.38658V26.807C2.38658 28.5682 3.81926 29.9999 5.57954 29.9999H22.0202C23.7793 29.9999 25.2122 28.5681 25.2122 26.807V7.55687L17.6288 0ZM4.16347 17.6948C4.54054 17.6311 5.07056 17.583 5.81729 17.583C6.57192 17.583 7.10978 17.7271 7.47117 18.0164C7.81638 18.2891 8.04934 18.7391 8.04934 19.2688C8.04934 19.7983 7.87281 20.2485 7.55162 20.5534C7.13386 20.9467 6.51605 21.1232 5.79333 21.1232C5.63249 21.1232 5.48832 21.1152 5.37557 21.0996V23.0345H4.16347V17.6948ZM22.0202 28.0445H5.57954C4.89795 28.0445 4.34292 27.4895 4.34292 26.807V25.3762H19.669C20.3796 25.3762 20.9557 24.8006 20.9557 24.0896V16.2866C20.9557 15.5756 20.3796 14.9999 19.669 14.9999H4.34292V3.19295C4.34292 2.51236 4.89801 1.95734 5.57954 1.95734L16.8972 1.94551V6.12892C16.8972 7.35085 17.8887 8.34324 19.1115 8.34324L23.2096 8.33148L23.2557 26.8069C23.2557 27.4895 22.7017 28.0445 22.0202 28.0445ZM8.83092 23.01V17.6948C9.28047 17.6232 9.86642 17.583 10.4848 17.583C11.5125 17.583 12.1789 17.7674 12.701 18.1606C13.263 18.5784 13.616 19.2443 13.616 20.2003C13.616 21.2359 13.2389 21.9508 12.7167 22.392C12.1469 22.8657 11.2796 23.0903 10.22 23.0903C9.58543 23.0903 9.13587 23.0501 8.83092 23.01ZM17.5935 19.8631V20.8584H15.6503V23.0345H14.422V17.6232H17.7298V18.6264H15.6503V19.8631H17.5935Z" fill="black"/>
</svg>
