<svg width="16" height="16" viewBox="0 0 16 16" fill="none" xmlns="http://www.w3.org/2000/svg">
<path d="M7.99998 0C3.58173 0 0 3.58173 0 7.99998C0 12.4182 3.58173 16 7.99998 16C12.4182 16 16 12.4182 16 7.99998C16 3.58173 12.4183 0 7.99998 0ZM7.99998 14.528C4.39466 14.528 1.47199 11.6053 1.47199 7.99998C1.47199 4.39466 4.39466 1.47199 7.99998 1.47199C11.6035 1.47641 14.5236 4.3965 14.528 7.99998C14.528 11.6053 11.6053 14.528 7.99998 14.528Z" fill="#ADC8A8"/>
<path d="M5.59961 3.3042V12.6962L12.6396 8.00017L5.59961 3.3042ZM7.19962 6.1122L10.0876 8.00021L7.19962 9.84818V6.1122Z" fill="#ADC8A8"/>
</svg>
