<svg width="20" height="21" viewBox="0 0 20 21" fill="none" xmlns="http://www.w3.org/2000/svg">
<g clip-path="url(#clip0)">
<g clip-path="url(#clip1)">
<path d="M10 0.5C4.48566 0.5 0 4.98566 0 10.5C0 16.0143 4.48566 20.5 10 20.5C15.5143 20.5 20 16.0136 20 10.5C20 4.98645 15.5143 0.5 10 0.5ZM10 18.9508C5.34082 18.9508 1.54918 15.16 1.54918 10.5C1.54918 5.84004 5.34082 2.04918 10 2.04918C14.6592 2.04918 18.4508 5.84004 18.4508 10.5C18.4508 15.16 14.66 18.9508 10 18.9508Z" fill="white"/>
<path d="M13.8731 9.65568H10.7747V6.55732C10.7747 6.12975 10.4285 5.78271 10.0001 5.78271C9.57176 5.78271 9.22551 6.12975 9.22551 6.55732V9.65568H6.12715C5.69879 9.65568 5.35254 10.0027 5.35254 10.4303C5.35254 10.8579 5.69879 11.2049 6.12715 11.2049H9.22551V14.3033C9.22551 14.7308 9.57176 15.0779 10.0001 15.0779C10.4285 15.0779 10.7747 14.7308 10.7747 14.3033V11.2049H13.8731C14.3014 11.2049 14.6477 10.8579 14.6477 10.4303C14.6477 10.0027 14.3014 9.65568 13.8731 9.65568Z" fill="white"/>
</g>
</g>
<defs>
<clipPath id="clip0">
<rect width="20" height="20" fill="white" transform="translate(0 0.5)"/>
</clipPath>
<clipPath id="clip1">
<rect width="20" height="20" fill="white" transform="translate(0 0.5)"/>
</clipPath>
</defs>
</svg>
