<svg width="18" height="19" viewBox="0 0 18 19" fill="none" xmlns="http://www.w3.org/2000/svg">
<path d="M9 14.6855C9.48541 14.6855 9.87891 14.292 9.87891 13.8066C9.87891 13.3212 9.48541 12.9277 9 12.9277C8.51459 12.9277 8.12109 13.3212 8.12109 13.8066C8.12109 14.292 8.51459 14.6855 9 14.6855Z" fill="white"/>
<path d="M9 0.5C4.02595 0.5 0 4.52528 0 9.5C0 14.474 4.02528 18.5 9 18.5C13.974 18.5 18 14.4747 18 9.5C18 4.52595 13.9747 0.5 9 0.5ZM9 17.0938C4.80315 17.0938 1.40625 13.6974 1.40625 9.5C1.40625 5.30315 4.80259 1.90625 9 1.90625C13.1968 1.90625 16.5938 5.30259 16.5938 9.5C16.5938 13.6968 13.1974 17.0938 9 17.0938Z" fill="white"/>
<path d="M9 5.01758C7.44919 5.01758 6.1875 6.27927 6.1875 7.83008C6.1875 8.21841 6.50229 8.5332 6.89062 8.5332C7.27896 8.5332 7.59375 8.21841 7.59375 7.83008C7.59375 7.05467 8.22459 6.42383 9 6.42383C9.77541 6.42383 10.4062 7.05467 10.4062 7.83008C10.4062 8.60548 9.77541 9.23633 9 9.23633C8.61166 9.23633 8.29688 9.55112 8.29688 9.93945V11.6973C8.29688 12.0856 8.61166 12.4004 9 12.4004C9.38834 12.4004 9.70312 12.0856 9.70312 11.6973V10.5536C10.9148 10.2406 11.8125 9.13821 11.8125 7.83008C11.8125 6.27927 10.5508 5.01758 9 5.01758Z" fill="white"/>
</svg>
