<svg width="20" height="21" viewBox="0 0 20 21" fill="none" xmlns="http://www.w3.org/2000/svg">
<g clip-path="url(#clip0)">
<g clip-path="url(#clip1)">
<path d="M17.0703 5.53906H16.5234V3.42969C16.5234 1.81426 15.2092 0.5 13.5938 0.5H6.40625C4.79082 0.5 3.47656 1.81426 3.47656 3.42969V5.53906H2.92969C1.31426 5.53906 0 6.85332 0 8.46875V13.1562C0 14.7717 1.31426 16.0859 2.92969 16.0859H3.47656V18.7422C3.47656 19.7114 4.26512 20.5 5.23438 20.5H14.7656C15.7349 20.5 16.5234 19.7114 16.5234 18.7422V16.0859H17.0703C18.6857 16.0859 20 14.7717 20 13.1562V8.46875C20 6.85332 18.6857 5.53906 17.0703 5.53906ZM4.64844 3.42969C4.64844 2.46043 5.43699 1.67188 6.40625 1.67188H13.5938C14.563 1.67188 15.3516 2.46043 15.3516 3.42969V5.53906H4.64844V3.42969ZM15.3516 18.7422C15.3516 19.0653 15.0887 19.3281 14.7656 19.3281H5.23438C4.91129 19.3281 4.64844 19.0653 4.64844 18.7422V12.9609H15.3516V18.7422ZM18.8281 13.1562C18.8281 14.1255 18.0396 14.9141 17.0703 14.9141H16.5234V12.9609H16.875C17.1986 12.9609 17.4609 12.6986 17.4609 12.375C17.4609 12.0514 17.1986 11.7891 16.875 11.7891H3.125C2.80141 11.7891 2.53906 12.0514 2.53906 12.375C2.53906 12.6986 2.80141 12.9609 3.125 12.9609H3.47656V14.9141H2.92969C1.96043 14.9141 1.17188 14.1255 1.17188 13.1562V8.46875C1.17188 7.49949 1.96043 6.71094 2.92969 6.71094H17.0703C18.0396 6.71094 18.8281 7.49949 18.8281 8.46875V13.1562Z" fill="white"/>
<path d="M11.5625 14.2891H8.4375C8.11391 14.2891 7.85156 14.5514 7.85156 14.875C7.85156 15.1986 8.11391 15.4609 8.4375 15.4609H11.5625C11.8861 15.4609 12.1484 15.1986 12.1484 14.875C12.1484 14.5514 11.8861 14.2891 11.5625 14.2891Z" fill="white"/>
<path d="M11.5625 16.7891H8.4375C8.11391 16.7891 7.85156 17.0514 7.85156 17.375C7.85156 17.6986 8.11391 17.9609 8.4375 17.9609H11.5625C11.8861 17.9609 12.1484 17.6986 12.1484 17.375C12.1484 17.0514 11.8861 16.7891 11.5625 16.7891Z" fill="white"/>
<path d="M5 8.03906H3.125C2.80141 8.03906 2.53906 8.30141 2.53906 8.625C2.53906 8.94859 2.80141 9.21094 3.125 9.21094H5C5.32359 9.21094 5.58594 8.94859 5.58594 8.625C5.58594 8.30141 5.32359 8.03906 5 8.03906Z" fill="white"/>
</g>
</g>
<defs>
<clipPath id="clip0">
<rect width="20" height="20" fill="white" transform="translate(0 0.5)"/>
</clipPath>
<clipPath id="clip1">
<rect width="20" height="20" fill="white" transform="translate(0 0.5)"/>
</clipPath>
</defs>
</svg>
