<svg width="32" height="32" viewBox="0 0 32 32" fill="none" xmlns="http://www.w3.org/2000/svg">
<path d="M31.0417 19.5067L28.1004 17.2067C28.1377 16.852 28.1697 16.4374 28.1697 15.9987C28.1697 15.56 28.139 15.1454 28.1004 14.7907L31.0444 12.4894C31.5911 12.0574 31.7404 11.2907 31.3924 10.6521L28.3337 5.36C28.007 4.76269 27.291 4.456 26.5644 4.724L23.0937 6.11731C22.4284 5.63731 21.731 5.232 21.0097 4.908L20.4817 1.22669C20.395 0.528 19.787 0 19.0684 0H12.9351C12.2164 0 11.6098 0.528 11.5244 1.216L10.9951 4.91069C10.2964 5.22538 9.60978 5.62537 8.91509 6.12L5.43509 4.72269C4.78303 4.47069 4.00303 4.75331 3.67903 5.348L0.616405 10.6467C0.255093 11.2574 0.404405 12.0507 0.963093 12.4934L3.90441 14.7934C3.85772 15.2427 3.83509 15.6334 3.83509 16.0001C3.83509 16.3668 3.85778 16.7574 3.90441 17.2081L0.960405 19.5094C0.413718 19.9427 0.265718 20.7094 0.613718 21.3467L3.67241 26.6387C3.99909 27.2347 4.70841 27.544 5.44172 27.2747L8.91241 25.8814C9.5764 26.3601 10.2737 26.7654 10.9951 27.0907L11.5231 30.7707C11.6097 31.472 12.2164 32 12.9364 32H19.0697C19.7884 32 20.3964 31.472 20.4817 30.784L21.011 27.0907C21.7097 26.7747 22.395 26.376 23.091 25.88L26.571 27.2773C26.739 27.3426 26.9137 27.376 27.0937 27.376C27.611 27.376 28.087 27.0933 28.327 26.6533L31.399 21.3333C31.7404 20.7093 31.591 19.9427 31.0417 19.5067ZM16.0017 21.3333C13.0604 21.3333 10.6684 18.9413 10.6684 16C10.6684 13.0587 13.0604 10.6667 16.0017 10.6667C18.943 10.6667 21.335 13.0587 21.335 16C21.335 18.9413 18.943 21.3333 16.0017 21.3333Z" fill="#C0C9CD"/>
</svg>
