<svg width="16" height="17" viewBox="0 0 16 17" fill="none" xmlns="http://www.w3.org/2000/svg">
<g clip-path="url(#clip0)">
<path d="M13.4229 11.6447C13.9394 11.1282 14.004 10.2889 13.5133 9.74655C12.9839 9.15255 12.0671 9.12673 11.5118 9.68198L8.91633 12.2775C8.41272 12.7811 7.59921 12.7811 7.09561 12.2775L4.47429 9.66907C3.91903 9.11381 3.00221 9.13964 2.47278 9.73363C1.99501 10.2889 2.05957 11.1282 2.57609 11.6447L7.03104 16.0997C7.30221 16.3709 7.65086 16.5 7.99951 16.5C8.34816 16.5 8.69681 16.3709 8.96798 16.0997L13.4229 11.6447Z" fill="#C0C9CD"/>
<path d="M7.03108 0.888768L2.57613 5.34372C2.05961 5.86024 1.99505 6.69958 2.48574 7.24192C3.01517 7.83604 3.93198 7.86174 4.48724 7.30648L7.09565 4.69808C7.59925 4.1946 8.41276 4.1946 8.91637 4.69808L11.5248 7.3194C12.0802 7.87465 12.9968 7.84883 13.5263 7.25483C14.0041 6.71249 13.9395 5.87315 13.436 5.35663L8.98106 0.901681C8.70976 0.63038 8.36111 0.501251 8.01259 0.501251C7.6509 0.488467 7.30225 0.617597 7.03108 0.888768Z" fill="#C0C9CD"/>
</g>
<defs>
<clipPath id="clip0">
<rect width="16" height="16" fill="white" transform="translate(0 16.5) rotate(-90)"/>
</clipPath>
</defs>
</svg>
