<svg width="32" height="32" viewBox="0 0 32 32" fill="none" xmlns="http://www.w3.org/2000/svg">
<g clip-path="url(#clip0)">
<path d="M0.478516 23.2928L2.69751 23.8286C2.74561 23.8401 2.79468 23.8459 2.844 23.8459H15.5105C15.8557 23.8459 16.1355 23.5653 16.1355 23.2197V6.3562C16.1355 6.01056 15.8557 5.72998 15.5105 5.72998C15.1653 5.72998 14.8855 6.01056 14.8855 6.3562V16.1422H14.2854C13.0806 16.1422 11.8787 15.8731 10.7869 15.3628L10.2549 6.31951C10.2344 5.97435 9.93776 5.71041 9.59401 5.7312C9.24953 5.75151 8.98658 6.04798 9.00709 6.39314L9.53444 15.3557L5.21217 17.1444C5.09034 17.1948 4.96485 17.2324 4.83717 17.2574C4.83521 17.2579 4.8335 17.2581 4.83155 17.2584C4.70997 17.2818 4.58594 17.2938 4.46046 17.2938C4.45948 17.2938 4.4585 17.2938 4.45753 17.2938L3.49952 17.2926C3.49805 17.2926 3.49659 17.2926 3.49488 17.2926C2.12134 17.2926 0.892335 18.1642 0.436036 19.4629L0.0354004 20.6033C0.0117188 20.6708 0.000732426 20.741 0.000732426 20.8112C0.000488282 20.8112 0.000244141 20.8112 0 20.8112V22.6842C0 22.9736 0.197754 23.2251 0.478516 23.2928ZM2.91822 22.5935L1.25 22.1908V21.6211L2.64038 21.9836C2.69165 21.9971 2.74463 22.0037 2.79786 22.0037H14.8855V22.5935H2.91822ZM1.61499 19.8787C1.89551 19.0805 2.65064 18.5448 3.49488 18.5448H3.49781L4.45582 18.5463H4.46046C4.55054 18.5463 4.6399 18.5416 4.72901 18.5343L5.7024 19.5098C5.82447 19.6319 5.98438 19.693 6.1443 19.693C6.30421 19.693 6.46436 19.6319 6.58619 19.5098C6.83033 19.2652 6.83033 18.8687 6.58619 18.6241L6.09669 18.1334L6.87696 17.8105L7.85768 18.7931C7.97975 18.9154 8.13966 18.9766 8.29957 18.9766C8.45949 18.9766 8.6194 18.9154 8.74147 18.7931C8.98561 18.5487 8.98561 18.1522 8.74147 17.9076L8.12794 17.2928L8.71486 17.0499L9.68458 18.0216C9.80665 18.1439 9.96657 18.205 10.1265 18.205C10.2864 18.205 10.4463 18.1439 10.5684 18.0216C10.8125 17.7772 10.8125 17.3807 10.5684 17.136L9.96583 16.5323L10.1599 16.4518C11.4424 17.0693 12.8623 17.3946 14.2854 17.3946H14.8855V20.7513H2.87769L1.44019 20.3765L1.61499 19.8787Z" fill="#C0C9CD"/>
<path d="M17.0327 23.4515C17.0459 23.5217 17.0713 23.5882 17.1062 23.6489C17.1062 23.6489 17.106 23.6491 17.1057 23.6491L18.0406 25.2712C18.1543 25.4689 18.3628 25.5846 18.5818 25.5846C18.6407 25.5846 18.7002 25.576 18.7588 25.5589L20.9478 24.9109C20.9949 24.8969 21.0406 24.8774 21.083 24.8527L31.1858 19.0082C31.5621 18.7908 31.8311 18.4395 31.9434 18.0192C32.0557 17.599 31.9981 17.1599 31.7811 16.7832L31.3621 16.0562L29.0882 12.1102L25.9598 3.69537C25.8394 3.37125 25.4795 3.20638 25.156 3.32722C24.8326 3.44782 24.668 3.80838 24.7884 4.1325L27.7508 12.1002L27.1475 12.449C26.1246 13.0408 24.9751 13.4072 23.7998 13.5202L20.4993 6.10119C20.3587 5.78539 19.9893 5.64327 19.6741 5.78417C19.3589 5.92507 19.2171 6.29517 19.3577 6.61122L22.6849 14.0902L19.7898 17.8627C19.71 17.9664 19.6211 18.0613 19.524 18.1464C19.5213 18.1484 19.5188 18.1504 19.5164 18.1526C19.4221 18.234 19.3203 18.3069 19.211 18.3698L18.3806 18.8487C17.1885 19.5361 16.5574 20.9084 16.8108 22.2631L17.0327 23.4515ZM30.7361 17.6951C30.71 17.7922 30.648 17.8735 30.5608 17.9238L20.5225 23.7308L18.8767 24.2179L18.5926 23.7245L19.9773 23.3419C20.0286 23.3275 20.0779 23.3069 20.1238 23.2805L30.5921 17.2247L30.6985 17.4094C30.7488 17.4965 30.762 17.598 30.7361 17.6951ZM19.0039 19.9344L19.8343 19.4554C19.9138 19.4097 19.9905 19.3602 20.0652 19.3084L21.3948 19.6653C21.449 19.68 21.5035 19.6868 21.5569 19.6868C21.833 19.6868 22.0855 19.5024 22.1604 19.2225C22.2498 18.8886 22.0518 18.5452 21.7183 18.4556L21.0494 18.2761L21.5642 17.6053L22.9038 17.9649C22.958 17.9796 23.0125 17.9867 23.066 17.9867C23.3418 17.9867 23.5945 17.802 23.6692 17.5222C23.7586 17.1883 23.5608 16.8448 23.2273 16.7553L22.3892 16.5303L22.7764 16.0261L24.1011 16.3818C24.1553 16.3962 24.2098 16.4033 24.2632 16.4033C24.5391 16.4033 24.7918 16.2186 24.8665 15.9388C24.9559 15.6049 24.7581 15.2614 24.4246 15.1719L23.6014 14.951L23.7295 14.7842C25.1482 14.6765 26.5401 14.2467 27.7728 13.5337L28.2923 13.233L29.9673 16.1401L19.5681 22.1557L18.1365 22.5513L18.0393 22.0325C17.8836 21.1998 18.2713 20.3568 19.0039 19.9344Z" fill="#C0C9CD"/>
<path d="M6.79151 26.4517H0.625001C0.279785 26.4517 0 26.7322 0 27.0779C0 27.4238 0.279785 27.7041 0.625001 27.7041H6.79151C7.13673 27.7041 7.41651 27.4238 7.41651 27.0779C7.41651 26.7322 7.13673 26.4517 6.79151 26.4517Z" fill="#C0C9CD"/>
<path d="M9.93726 26.4517C9.77295 26.4517 9.61182 26.5187 9.49536 26.6351C9.37915 26.7516 9.31226 26.913 9.31226 27.0779C9.31226 27.2425 9.37915 27.4042 9.49536 27.5206C9.61182 27.6371 9.77295 27.7041 9.93726 27.7041C10.1018 27.7041 10.2629 27.6371 10.3792 27.5206C10.4954 27.4042 10.5623 27.2425 10.5623 27.0779C10.5623 26.913 10.4954 26.7516 10.3792 26.6351C10.2629 26.5187 10.1018 26.4517 9.93726 26.4517Z" fill="#C0C9CD"/>
<path d="M31.3721 25.0073H25.2056C24.8604 25.0073 24.5806 25.2879 24.5806 25.6335C24.5806 25.9794 24.8604 26.2598 25.2056 26.2598H31.3721C31.7173 26.2598 31.9971 25.9794 31.9971 25.6335C31.9971 25.2879 31.7173 25.0073 31.3721 25.0073Z" fill="#C0C9CD"/>
<path d="M22.1663 27.5161H15.9998C15.6545 27.5161 15.3748 27.7967 15.3748 28.1423C15.3748 28.4882 15.6545 28.7686 15.9998 28.7686H22.1663C22.5115 28.7686 22.7913 28.4882 22.7913 28.1423C22.7913 27.7967 22.5115 27.5161 22.1663 27.5161Z" fill="#C0C9CD"/>
</g>
<defs>
<clipPath id="clip0">
<rect width="32" height="32" fill="white"/>
</clipPath>
</defs>
</svg>
