<svg width="33" height="33" viewBox="0 0 33 33" fill="none" xmlns="http://www.w3.org/2000/svg">
<g clip-path="url(#clip0)">
<path d="M20.8963 23.8096L18.4929 26.2131L17.8555 27.5542V14.541H15.1997V27.4878L14.5889 26.2396L12.1589 23.8096L10.353 25.496L16.5276 31.6706L22.6491 25.5624L20.8963 23.8096Z" fill="#C0C9CD"/>
<path d="M25.1593 7.82189H25.0265C23.5991 3.94396 19.9171 1.35722 15.7849 1.32933C10.3068 1.29236 5.83589 5.70328 5.79897 11.1814C5.79897 11.3938 5.79897 11.593 5.79897 11.8055C2.8435 11.8348 0.47144 14.2545 0.500757 17.21C0.530074 20.1654 2.94975 22.5375 5.90522 22.5082H12.5446V19.8524H5.90516C4.40913 19.8524 3.1963 18.6396 3.1963 17.1436C3.1963 15.6475 4.40913 14.4347 5.90516 14.4347C6.25043 14.4347 8.56093 14.5409 8.56093 14.5409C8.56093 14.5409 8.44142 11.8055 8.44142 11.1814C8.38771 7.71644 10.7935 4.69786 14.1832 3.97732C18.0998 3.14468 21.9499 5.64484 22.7825 9.56148L23.0613 10.7964L24.3095 10.5706C24.5893 10.5136 24.8738 10.4824 25.1593 10.4777C27.7481 10.4777 29.8467 12.5763 29.8467 15.1651C29.8467 17.7539 27.7481 19.8525 25.1593 19.8525H20.5117V22.5083H25.1593C29.2132 22.5072 32.4993 19.2211 32.5004 15.1672C32.5016 11.1115 29.2148 7.82301 25.1593 7.82189Z" fill="#C0C9CD"/>
</g>
<defs>
<clipPath id="clip0">
<rect width="32" height="32" fill="white" transform="translate(0.5 0.5)"/>
</clipPath>
</defs>
</svg>
