<svg width="50" height="51" viewBox="0 0 50 51" fill="none" xmlns="http://www.w3.org/2000/svg">
<g clip-path="url(#clip0)">
<path d="M32.2178 0.788773C31.9886 0.547303 31.6742 0.402344 31.3485 0.402344H11.8435C8.24433 0.402344 5.27344 3.36141 5.27344 6.9602V43.8442C5.27344 47.4434 8.24433 50.4024 11.8435 50.4024H38.3168C41.916 50.4024 44.8869 47.4434 44.8869 43.8442V14.5568C44.8869 14.2429 44.7419 13.9411 44.5367 13.7115L32.2178 0.788773ZM32.568 4.66566L40.8169 13.325H35.4546C33.8604 13.325 32.568 12.0448 32.568 10.4507V4.66566ZM38.3168 47.987H11.8435C9.5852 47.987 7.68891 46.1151 7.68891 43.8442V6.9602C7.68891 4.7019 9.57299 2.81781 11.8435 2.81781H30.1526V10.4507C30.1526 13.3853 32.52 15.7405 35.4546 15.7405H42.4714V43.8442C42.4714 46.1151 40.5873 47.987 38.3168 47.987Z" fill="#ECF0F3"/>
<path d="M35.0195 39.6538H15.1404C14.4762 39.6538 13.9326 40.197 13.9326 40.8616C13.9326 41.5257 14.4762 42.0693 15.1404 42.0693H35.0317C35.6959 42.0693 36.2395 41.5257 36.2395 40.8616C36.2395 40.197 35.6959 39.6538 35.0195 39.6538Z" fill="#ECF0F3"/>
<path d="M18.8963 26.6584L23.8722 21.3079V34.4964C23.8722 35.1606 24.4158 35.7042 25.08 35.7042C25.7445 35.7042 26.2877 35.1606 26.2877 34.4964V21.3079L31.2636 26.6584C31.5051 26.9117 31.8194 27.0448 32.1452 27.0448C32.4351 27.0448 32.7372 26.9361 32.9665 26.7186C33.4498 26.2597 33.486 25.4987 33.0271 25.0157L25.9497 17.4191C25.7201 17.1777 25.4061 17.0327 25.0681 17.0327C24.7298 17.0327 24.4158 17.1777 24.1866 17.4191L17.1091 25.0157C16.6502 25.4987 16.6865 26.2715 17.1694 26.7186C17.6768 27.1775 18.4374 27.1413 18.8963 26.6584Z" fill="#ECF0F3"/>
</g>
<defs>
<clipPath id="clip0">
<rect width="50" height="50" fill="white" transform="translate(0 0.5)"/>
</clipPath>
</defs>
</svg>
