<svg width="46" height="45" viewBox="0 0 46 45" fill="none" xmlns="http://www.w3.org/2000/svg">
<path d="M44.0695 21.5625C44.5945 21.5625 45.007 21.975 45.007 22.5C45.007 23.025 44.5945 23.4375 44.0695 23.4375H43.132V21.5625H44.0695Z" fill="white"/>
<path d="M23.4443 21.5625H43.1318V23.4375H23.4443V21.5625Z" fill="white"/>
<path d="M40.3125 45H22.5C23.025 45 23.4375 44.5875 23.4375 44.0625V43.125H40.3125C41.8687 43.125 43.125 41.8687 43.125 40.3125V23.4375H44.0625C44.5875 23.4375 45 23.025 45 22.5V40.3125C45 42.9 42.9 45 40.3125 45Z" fill="white"/>
<path d="M45 4.6875V22.5C45 21.975 44.5875 21.5625 44.0625 21.5625H43.125V4.6875C43.125 3.13125 41.8687 1.875 40.3125 1.875H23.4375V0.9375C23.4375 0.4125 23.025 0 22.5 0H40.3125C42.9 0 45 2.1 45 4.6875Z" fill="white"/>
<path d="M37.5068 11.25C38.0318 11.25 38.4443 11.6625 38.4443 12.1875C38.4443 12.7125 38.0318 13.125 37.5068 13.125H30.0068C29.4818 13.125 29.0693 12.7125 29.0693 12.1875C29.0693 11.6625 29.4818 11.25 30.0068 11.25H37.5068Z" fill="white"/>
<path d="M37.5068 30C38.0318 30 38.4443 30.4125 38.4443 30.9375C38.4443 31.4625 38.0318 31.875 37.5068 31.875H30.0068C29.4818 31.875 29.0693 31.4625 29.0693 30.9375C29.0693 30.4125 29.4818 30 30.0068 30H37.5068Z" fill="white"/>
<path d="M37.5068 35.625C38.0318 35.625 38.4443 36.0375 38.4443 36.5625C38.4443 37.0875 38.0318 37.5 37.5068 37.5H30.0068C29.4818 37.5 29.0693 37.0875 29.0693 36.5625C29.0693 36.0375 29.4818 35.625 30.0068 35.625H37.5068Z" fill="white"/>
<path d="M23.4306 43.125V44.0625C23.4306 44.5875 23.0181 45 22.4932 45C21.9682 45 21.5557 44.5875 21.5557 44.0625V43.125H23.4306Z" fill="white"/>
<path d="M21.5557 23.4375H23.4306V43.125H21.5557V23.4375Z" fill="white"/>
<path d="M21.5557 21.5625H23.4306V23.4375H21.5557V21.5625Z" fill="white"/>
<path d="M21.5557 1.875H23.4306V21.5625H21.5557V1.875Z" fill="white"/>
<path d="M23.4306 0.9375V1.875H21.5557V0.9375C21.5557 0.4125 21.9682 0 22.4932 0C23.0181 0 23.4306 0.4125 23.4306 0.9375Z" fill="white"/>
<path d="M1.86816 21.5625H21.5557V23.4375H1.86816V21.5625Z" fill="white"/>
<path d="M15.0068 11.25C15.5318 11.25 15.9443 11.6625 15.9443 12.1875C15.9443 12.7125 15.5318 13.125 15.0068 13.125H12.1943V11.25H15.0068Z" fill="white"/>
<path d="M14.7188 35.9062C15.0938 36.2625 15.0938 36.8625 14.7188 37.2188C14.55 37.4063 14.3063 37.5 14.0625 37.5C13.8188 37.5 13.575 37.4063 13.4063 37.2188L11.25 35.0625L12.5625 33.75L14.7188 35.9062Z" fill="white"/>
<path d="M13.4063 30.2813C13.7625 29.9062 14.3625 29.9062 14.7188 30.2813C15.0938 30.6375 15.0938 31.2375 14.7188 31.5938L12.5625 33.75L11.25 32.4375L13.4063 30.2813Z" fill="white"/>
<path d="M9.93201 33.748L11.2446 32.4355L12.5571 33.748L11.2446 35.0606L9.93201 33.748Z" fill="white"/>
<path d="M12.1807 13.125V15.9375C12.1807 16.4625 11.7682 16.875 11.2432 16.875C10.7182 16.875 10.3057 16.4625 10.3057 15.9375V13.125H12.1807Z" fill="white"/>
<path d="M10.3057 11.25H12.1807V13.125H10.3057V11.25Z" fill="white"/>
<path d="M12.1807 8.4375V11.25H10.3057V8.4375C10.3057 7.9125 10.7182 7.5 11.2432 7.5C11.7682 7.5 12.1807 7.9125 12.1807 8.4375Z" fill="white"/>
<path d="M11.2432 32.4375L9.93066 33.75L7.77441 31.5938C7.39941 31.2375 7.39941 30.6375 7.77441 30.2813C8.13066 29.9062 8.73066 29.9062 9.08691 30.2813L11.2432 32.4375Z" fill="white"/>
<path d="M10.3193 11.25V13.125H7.50683C6.98183 13.125 6.56934 12.7125 6.56934 12.1875C6.56934 11.6625 6.98183 11.25 7.50683 11.25H10.3193Z" fill="white"/>
<path d="M9.08691 37.2188C8.91816 37.4063 8.67441 37.5 8.43066 37.5C8.18691 37.5 7.94316 37.4063 7.77441 37.2188C7.39941 36.8625 7.39941 36.2625 7.77441 35.9062L9.93066 33.75L11.2432 35.0625L9.08691 37.2188Z" fill="white"/>
<path d="M1.875 21.5625V23.4375H0.9375C0.4125 23.4375 0 23.025 0 22.5C0 21.975 0.4125 21.5625 0.9375 21.5625H1.875Z" fill="white"/>
<path d="M0 4.6875C0 2.1 2.1 0 4.6875 0H22.5C21.975 0 21.5625 0.4125 21.5625 0.9375V1.875H4.6875C3.13125 1.875 1.875 3.13125 1.875 4.6875V21.5625H0.9375C0.4125 21.5625 0 21.975 0 22.5V4.6875Z" fill="white"/>
<path d="M1.875 40.3125C1.875 41.8687 3.13125 43.125 4.6875 43.125H21.5625V44.0625C21.5625 44.5875 21.975 45 22.5 45H4.6875C2.1 45 0 42.9 0 40.3125V22.5C0 23.025 0.4125 23.4375 0.9375 23.4375H1.875V40.3125Z" fill="white"/>
</svg>
