<svg width="16" height="11" viewBox="0 0 16 11" fill="none" xmlns="http://www.w3.org/2000/svg">
<path d="M8.62432 9.94493L15.7444 2.82473C15.9092 2.66005 16 2.44021 16 2.20581C16 1.97141 15.9092 1.75157 15.7444 1.58689L15.2202 1.06253C14.8786 0.721334 14.3234 0.721334 13.9823 1.06253L8.00332 7.04154L2.01768 1.0559C1.85286 0.891218 1.63316 0.800292 1.39888 0.800292C1.16435 0.800292 0.944643 0.891218 0.779701 1.0559L0.255608 1.58025C0.0907964 1.74507 9.02773e-07 1.96477 8.92527e-07 2.19918C8.82281e-07 2.43358 0.0907964 2.65342 0.255608 2.8181L7.38218 9.94493C7.54752 10.11 7.76826 10.2007 8.00293 10.2002C8.2385 10.2007 8.45912 10.11 8.62432 9.94493Z" fill="#3C545C"/>
</svg>
