<svg width="20" height="20" viewBox="0 0 20 20" fill="none" xmlns="http://www.w3.org/2000/svg">
<path d="M9.6524 19.8076C9.6524 19.8076 9.65242 19.8076 9.65242 19.8076L9.99981 20L10.3472 19.8076C10.3472 19.8076 10.3472 19.8076 10.3472 19.8076L15.5552 16.9231L18.8909 15.0757V14.6531V4.5298V4.06942L18.4723 3.87783L17.4789 3.42314L9.99979 0L2.52068 3.42314L1.52727 3.87783L1.10864 4.06942V4.5298V14.6531V15.0757L4.44437 16.9231L9.6524 19.8076ZM12.3653 6.92724L9.99979 8.23733L7.63434 6.92724L3.41559 4.59069L9.99979 1.57715L16.584 4.59069L12.3653 6.92724ZM10.7168 17.9635V9.47954L17.4569 5.74662V14.2306L10.7168 17.9635ZM9.28275 9.47954V17.9635L2.54274 14.2306V5.74659L9.28275 9.47954Z" fill="white"/>
</svg>
