<svg width="20" height="20" viewBox="0 0 20 20" fill="none" xmlns="http://www.w3.org/2000/svg">
<path d="M18.125 0H1.875C0.839453 0 0 0.839453 0 1.875V18.125C0 19.1605 0.839453 20 1.875 20H18.125C19.1605 20 20 19.1605 20 18.125V1.875C20 0.839453 19.1605 0 18.125 0ZM18.75 18.125C18.75 18.4702 18.4702 18.75 18.125 18.75H1.875C1.5298 18.75 1.25 18.4702 1.25 18.125V1.875C1.25 1.5298 1.5298 1.25 1.875 1.25H18.125C18.4702 1.25 18.75 1.5298 18.75 1.875V18.125Z" fill="white"/>
<path d="M13.5689 10.8064C13.3251 10.564 12.9314 10.564 12.6876 10.8064L11.2501 12.2439L8.56888 9.56262C8.32509 9.32027 7.93142 9.32027 7.68763 9.56262L3.31263 13.9376C3.07099 14.1841 3.07486 14.5798 3.32134 14.8214C3.43599 14.9339 3.58955 14.9979 3.75013 15.0001H16.2501C16.5953 15.0021 16.8767 14.7239 16.8788 14.3787C16.8797 14.2108 16.8131 14.0496 16.6939 13.9314L13.5689 10.8064Z" fill="white"/>
<path d="M11.875 8.75C12.9105 8.75 13.75 7.91053 13.75 6.875C13.75 5.83947 12.9105 5 11.875 5C10.8395 5 10 5.83947 10 6.875C10 7.91053 10.8395 8.75 11.875 8.75Z" fill="white"/>
</svg>
