<svg width="20" height="20" viewBox="0 0 20 20" fill="none" xmlns="http://www.w3.org/2000/svg">
<path d="M19.1423 15.0146C17.3523 13.2246 17.4696 13.338 17.4192 13.3008L12.6811 9.80249L14.5192 7.96456C15.997 8.49116 17.6701 8.1271 18.7962 7.00104C20.023 5.77424 20.345 3.89865 19.5975 2.33393C19.4233 1.96935 18.9401 1.88678 18.6548 2.17221L17.1395 3.68748C16.9112 3.91584 16.5396 3.91588 16.3111 3.68748C16.0822 3.45854 16.0822 3.08807 16.3111 2.85912L17.8264 1.34381C18.1121 1.05814 18.0291 0.575095 17.6647 0.40111C16.1 -0.346391 14.2244 -0.0243592 12.9976 1.2024C11.8713 2.32873 11.5076 4.00197 12.0341 5.4794L9.91424 7.59905C9.48264 7.26335 10.0522 7.83675 5.98712 3.52635L6.41326 3.10022C6.68279 2.83072 6.62662 2.37947 6.30044 2.18377L3.16317 0.301383C2.34079 -0.192055 1.29286 -0.0630702 0.614692 0.615095C-0.0634339 1.29322 -0.192458 2.34123 0.300981 3.16358L2.18337 6.30088C2.37938 6.62768 2.83083 6.68268 3.09981 6.4137L3.50169 6.01182C7.54568 10.2999 7.01341 9.71745 7.3331 10.1285C7.34068 10.1382 7.34912 10.1468 7.35716 10.156L5.47743 12.0355C4.00009 11.5091 2.32673 11.8727 1.20047 12.9991C-0.0263244 14.2259 -0.348356 16.1014 0.399184 17.6662C0.573442 18.0308 1.05649 18.1133 1.34192 17.8279L2.8572 16.3126C3.08567 16.0842 3.4572 16.0843 3.6856 16.3126C3.91454 16.5415 3.91454 16.912 3.6856 17.1409L2.17024 18.6563C1.88454 18.9419 1.96766 19.425 2.33196 19.599C2.89438 19.8677 3.49681 19.9982 4.09501 19.9982C5.16103 19.9981 6.21322 19.5835 6.99908 18.7977C8.12541 17.6714 8.48904 15.9981 7.96259 14.5207L9.56791 12.9155L13.3056 17.4577C13.334 17.4921 13.2402 17.3961 14.9119 19.0678C15.5204 19.6763 16.3295 19.9918 17.1251 19.9918C17.7088 19.9918 18.2853 19.8218 18.7696 19.4731C20.2474 18.4088 20.4216 16.2938 19.1423 15.0146ZM3.94017 4.76928C3.7131 4.52854 3.33243 4.52432 3.09981 4.75698L2.80188 5.05487L1.30551 2.56084C1.08919 2.20029 1.14571 1.7408 1.44305 1.44346C1.7404 1.14607 2.19989 1.08959 2.5604 1.30592L5.05443 2.80232L4.75649 3.10018C4.53247 3.3242 4.52716 3.68576 4.74454 3.91623C9.41533 8.86894 8.6806 8.12366 9.07935 8.43382L8.19041 9.32269C7.88318 8.92761 8.59654 9.70671 3.94017 4.76928ZM6.85763 13.9688C6.68208 14.1444 6.63626 14.4115 6.7433 14.6355C7.27724 15.7532 7.04708 17.0929 6.17072 17.9693C5.60923 18.5307 4.85767 18.827 4.09603 18.8269C3.95903 18.8269 3.82177 18.8174 3.68517 18.798L4.51392 17.9692C5.20068 17.2825 5.20079 16.1709 4.51392 15.4841C3.8288 14.7989 2.71391 14.799 2.0288 15.4841L1.20004 16.3129C1.07317 15.417 1.36637 14.4898 2.0288 13.8274C2.9052 12.9509 4.24489 12.7209 5.36255 13.2548C5.58654 13.3618 5.85361 13.316 6.02923 13.1404L13.139 6.03116C13.3146 5.85561 13.3604 5.5885 13.2534 5.36448C12.7194 4.24686 12.9496 2.90709 13.826 2.03072C14.4885 1.36822 15.4156 1.07506 16.3114 1.20197L15.4827 2.03072C15.1508 2.3626 14.968 2.80393 14.968 3.2733C14.968 3.74268 15.1508 4.18393 15.4827 4.51588C16.1678 5.20104 17.2827 5.201 17.9678 4.51588L18.7966 3.68713C18.9234 4.58303 18.6302 5.51018 17.9678 6.1726C17.0914 7.04901 15.7517 7.27913 14.634 6.74522C14.4101 6.63823 14.143 6.68401 13.9674 6.85956L6.85763 13.9688ZM10.3977 12.0857L11.8434 10.6401L13.3168 11.728L11.5564 13.4883C10.3596 12.0339 10.4342 12.1215 10.3977 12.0857ZM18.0849 18.5225C17.4017 19.0145 16.3937 18.8929 15.7401 18.2394L14.1921 16.6914L12.3042 14.3972L14.2698 12.4316L16.6882 14.2171L18.3139 15.8429C19.0569 16.586 19.0092 17.8568 18.0849 18.5225Z" fill="white"/>
</svg>
