<svg width="20" height="20" viewBox="0 0 20 20" fill="none" xmlns="http://www.w3.org/2000/svg">
<path d="M19.5244 4.25027L10.3096 0.0673075C10.1117 -0.0224358 9.8881 -0.0224358 9.69044 0.0673075L0.475645 4.25027C0.186649 4.38131 -0.000273149 4.68216 2.99617e-07 5.01484C0.000508133 5.34753 0.188485 5.64784 0.477481 5.7783L9.69227 9.93353C9.79071 9.97784 9.89541 10 10.0001 10C10.1049 10 10.2098 9.97784 10.3077 9.93353L19.5225 5.77826C19.8118 5.64805 19.9998 5.34749 20 5.0148C20.0003 4.68241 19.8134 4.38127 19.5244 4.25027ZM10.0001 8.2659L2.783 5.0115L10.0001 1.73523L17.2173 5.0115L10.0001 8.2659Z" fill="white"/>
<path d="M19.937 10.4343C19.7666 10.0717 19.3054 9.90284 18.9066 10.0574L9.99994 13.5095L1.09351 10.0574C0.694287 9.90263 0.233069 10.0717 0.0631445 10.4343C-0.107014 10.7974 0.0785745 11.2169 0.477526 11.3715L9.69209 14.9429C9.79052 14.981 9.89521 15 9.99994 15C10.1047 15 10.2096 14.981 10.3078 14.9429L19.5224 11.3714C19.9213 11.2169 20.1069 10.7974 19.937 10.4343Z" fill="white"/>
<path d="M19.9362 15.431C19.7653 15.0701 19.3027 14.903 18.9051 15.058L10.0001 18.5158L1.09506 15.058C0.695839 14.9026 0.234862 15.0704 0.0639242 15.431C-0.107287 15.7916 0.0772836 16.2096 0.475956 16.3643L9.69039 19.9424C9.78933 19.9808 9.89484 20 10.0001 20C10.1053 20 10.2108 19.9808 10.3098 19.9424L19.5242 16.3643C19.9226 16.2095 20.1072 15.7916 19.9362 15.431Z" fill="white"/>
</svg>
