<svg width="20" height="20" viewBox="0 0 20 20" fill="none" xmlns="http://www.w3.org/2000/svg">
<g clip-path="url(#clip0)">
<path d="M17.0232 10.001L19.7449 8.00506C19.9054 7.88727 20 7.69991 20 7.50092C20 7.30193 19.9054 7.11457 19.7449 6.99678L10.3699 0.121813C10.1489 -0.0393022 9.85107 -0.0393022 9.63013 0.121813L0.255123 6.99678C0.0946218 7.11457 0 7.30197 0 7.50092C0 7.69991 0.0946218 7.88727 0.255123 8.00506L2.97684 10.001L0.255123 11.9968C0.0946218 12.1146 0 12.3019 0 12.5009C0 12.6999 0.0946218 12.8873 0.255123 13.0051L9.63013 19.8801C9.7406 19.9607 9.86998 20.0009 10 20.0009C10.13 20.0009 10.2594 19.9607 10.3699 19.8801L19.7449 13.0051C19.9055 12.8873 20 12.6999 20 12.5009C20 12.3019 19.9054 12.1146 19.7449 11.9968C19.7448 11.9968 17.0232 10.001 17.0232 10.001ZM9.99998 1.40111L18.3179 7.50096L9.99998 13.6008L1.68211 7.50092L9.99998 1.40111ZM9.99998 18.6008L1.68211 12.501L4.03418 10.7764L9.63013 14.8801C9.7406 14.9607 9.86998 15.001 10 15.001C10.13 15.001 10.2594 14.9607 10.3699 14.8801L15.9659 10.7764L18.3179 12.501C18.3179 12.501 9.99998 18.6008 9.99998 18.6008Z" fill="#C0C9CD"/>
</g>
<defs>
<clipPath id="clip0">
<rect width="20" height="20" fill="white"/>
</clipPath>
</defs>
</svg>
