<svg width="32" height="32" viewBox="0 0 32 32" fill="none" xmlns="http://www.w3.org/2000/svg">
<path d="M26.5801 8.39597C25.2895 3.7219 22.3696 0.733343 19.7875 1.44747C18.5911 1.77772 17.7411 2.86347 17.3693 4.50372L16.3318 5.79822C15.0143 7.72495 13.2268 9.28356 11.1387 10.3265L10.8012 10.4925C9.9575 10.9096 9.24772 11.555 8.75254 12.3553C8.25736 13.1557 7.99664 14.0789 8 15.02V18.5002C8.00045 18.8979 8.15862 19.2792 8.43983 19.5604C8.72104 19.8416 9.10231 19.9998 9.5 20.0002H9.86125C9.75035 20.3014 9.75035 20.6321 9.86125 20.9333H8C7.86739 20.9333 7.74021 20.986 7.64645 21.0797C7.55268 21.1735 7.5 21.3007 7.5 21.4333V30.5458C7.5 30.6784 7.55268 30.8056 7.64645 30.8993C7.74021 30.9931 7.86739 31.0458 8 31.0458H9.7085C9.78147 31.0458 9.85355 31.0298 9.91968 30.9989C9.98581 30.9681 10.0444 30.9232 10.0913 30.8673L11.6499 29.011H20.2961L21.8549 30.8673C21.9019 30.9232 21.9604 30.9681 22.0266 30.9989C22.0927 31.0298 22.1648 31.0458 22.2377 31.0458H23.9463C24.0789 31.0458 24.206 30.9931 24.2998 30.8993C24.3936 30.8056 24.4463 30.6784 24.4463 30.5458V21.4333C24.4463 21.3007 24.3936 21.1735 24.2998 21.0797C24.206 20.986 24.0789 20.9333 23.9463 20.9333H22.4166C22.4698 20.7834 22.498 20.6257 22.5 20.4666C22.4995 20.0778 22.3448 19.705 22.0698 19.4301C21.7948 19.1552 21.422 19.0006 21.0332 19.0002H18.9076C18.967 18.8401 18.9982 18.671 19 18.5002C19 18.1024 18.842 17.7209 18.5607 17.4396C18.2794 17.1583 17.8978 17.0002 17.5 17.0002C17.1022 17.0002 16.7206 17.1583 16.4393 17.4396C16.158 17.7209 16 18.1024 16 18.5002C16.0017 18.6709 16.0329 18.8401 16.0922 19.0002H15V18.5002C14.9996 18.1025 14.8414 17.7212 14.5602 17.44C14.279 17.1588 13.8977 17.0006 13.5 17.0002H11.2797V14.823C11.8115 14.7712 12.3396 14.7451 12.8547 14.7451C15.0871 14.7429 17.2955 15.2053 19.3394 16.103L20.8119 16.7476C21.8211 17.8628 22.9211 18.5081 23.9637 18.5081C24.1845 18.5084 24.4044 18.4788 24.6173 18.4202C27.0818 17.7398 27.9441 13.3367 26.5801 8.39597ZM9.475 30.0455H8.5V29.0108H10.3438L9.475 30.0455ZM23.4462 30.0455H22.4707L21.6019 29.0108H23.4463L23.4462 30.0455ZM23.4462 28.0108H8.5V21.9331H23.4463L23.4462 28.0108ZM21.5 20.4666C21.4999 20.5903 21.4507 20.7089 21.3632 20.7963C21.2757 20.8838 21.1571 20.933 21.0334 20.9331H11.2443C11.1826 20.9338 11.1213 20.9223 11.0641 20.8991C11.0069 20.876 10.9548 20.8418 10.9109 20.7984C10.867 20.755 10.8322 20.7033 10.8084 20.6464C10.7846 20.5894 10.7724 20.5283 10.7724 20.4666C10.7724 20.4048 10.7846 20.3437 10.8084 20.2868C10.8322 20.2298 10.867 20.1781 10.9109 20.1347C10.9548 20.0914 11.0069 20.0571 11.0641 20.034C11.1213 20.0109 11.1826 19.9993 11.2443 20H21.0332C21.1569 20.0001 21.2756 20.0492 21.3631 20.1367C21.4507 20.2242 21.4999 20.3428 21.5 20.4666ZM17 18.5002C17 18.4013 17.0293 18.3047 17.0843 18.2224C17.1392 18.1402 17.2173 18.0761 17.3087 18.0383C17.4 18.0004 17.5006 17.9905 17.5975 18.0098C17.6945 18.0291 17.7836 18.0767 17.8536 18.1467C17.9235 18.2166 17.9711 18.3057 17.9904 18.4027C18.0097 18.4997 17.9998 18.6002 17.9619 18.6916C17.9241 18.7829 17.86 18.861 17.7778 18.916C17.6956 18.9709 17.5989 19.0002 17.5 19.0002C17.3674 19.0001 17.2404 18.9473 17.1466 18.8536C17.0529 18.7599 17.0002 18.6328 17 18.5002ZM14 18.5002V19.0002H9.5C9.36745 19 9.24038 18.9473 9.14665 18.8536C9.05292 18.7598 9.00018 18.6328 9 18.5002V18.0002H13.5C13.6326 18.0004 13.7596 18.0531 13.8534 18.1468C13.9471 18.2406 13.9998 18.3677 14 18.5002ZM10.7188 13.8788C10.5976 13.8937 10.4861 13.9524 10.4052 14.0439C10.3243 14.1353 10.2797 14.2532 10.2797 14.3752V17.0002H9V15.0202C8.99721 14.2654 9.20619 13.525 9.6032 12.883C10.0002 12.241 10.5693 11.7233 11.2459 11.3886L11.5834 11.2226C13.8143 10.1108 15.7251 8.44868 17.1352 6.39322L17.1602 6.36197C17.1374 7.70316 17.3456 9.21316 17.79 10.8227C18.2451 12.471 18.8834 13.9378 19.6218 15.1395C16.8215 13.9263 13.7458 13.4907 10.7188 13.8787V13.8788ZM24.3511 17.4565C23.5395 17.6797 22.491 17.1508 21.4799 16.0056C21.4706 15.9948 21.4616 15.9848 21.4514 15.9748C20.4086 14.781 19.4086 12.9298 18.7534 10.5568C18.1652 8.42647 18.0041 6.41934 18.3 4.90447C18.5676 3.53534 19.1904 2.65009 20.0537 2.41153C20.2146 2.36761 20.3807 2.3456 20.5474 2.34609C22.2584 2.34609 24.4787 4.54365 25.6162 8.66228C26.9118 13.356 26.0081 16.9988 24.3511 17.4565Z" fill="#C0C9CD"/>
<path d="M9.5 23.5V26.5C9.5 26.6326 9.55268 26.7598 9.64645 26.8536C9.74021 26.9473 9.86739 27 10 27H22C22.1326 27 22.2598 26.9473 22.3536 26.8536C22.4473 26.7598 22.5 26.6326 22.5 26.5V23.5C22.5 23.3674 22.4473 23.2402 22.3536 23.1464C22.2598 23.0527 22.1326 23 22 23H10C9.86739 23 9.74021 23.0527 9.64645 23.1464C9.55268 23.2402 9.5 23.3674 9.5 23.5ZM10.5 24H21.5V26H10.5V24Z" fill="#C0C9CD"/>
</svg>
