<svg width="16" height="11" viewBox="0 0 16 11" fill="none" xmlns="http://www.w3.org/2000/svg">
<path d="M8.62432 9.94469L15.7444 2.82449C15.9092 2.65981 16 2.43997 16 2.20557C16 1.97116 15.9092 1.75133 15.7444 1.58664L15.2202 1.06229C14.8786 0.72109 14.3234 0.72109 13.9823 1.06229L8.00332 7.0413L2.01768 1.05566C1.85286 0.890974 1.63316 0.800048 1.39888 0.800048C1.16435 0.800048 0.944643 0.890974 0.779701 1.05566L0.255608 1.58001C0.0907964 1.74482 9.02773e-07 1.96453 8.92527e-07 2.19893C8.82281e-07 2.43334 0.0907964 2.65317 0.255608 2.81785L7.38218 9.94469C7.54752 10.1098 7.76826 10.2004 8.00293 10.1999C8.2385 10.2004 8.45912 10.1098 8.62432 9.94469Z" fill="white"/>
</svg>
