<svg width="32" height="33" viewBox="0 0 32 33" fill="none" xmlns="http://www.w3.org/2000/svg">
<g clip-path="url(#clip0)">
<path d="M29 0.5H3C1.34312 0.5 0 1.84312 0 3.5V29.5C0 31.1569 1.34312 32.5 3 32.5H29C30.6569 32.5 32 31.1569 32 29.5V3.5C32 1.84312 30.6569 0.5 29 0.5ZM30 29.5C30 30.0523 29.5523 30.5 29 30.5H3C2.44769 30.5 2 30.0523 2 29.5V3.5C2 2.94769 2.44769 2.5 3 2.5H29C29.5523 2.5 30 2.94769 30 3.5V29.5Z" fill="#C0C9CD"/>
<path d="M21.7099 17.7901C21.3198 17.4023 20.6899 17.4023 20.2999 17.7901L17.9999 20.0901L13.7099 15.8001C13.3198 15.4123 12.6899 15.4123 12.2999 15.8001L5.29989 22.8001C4.91326 23.1945 4.91945 23.8276 5.31382 24.2142C5.49726 24.3941 5.74295 24.4965 5.99989 24.5001H25.9999C26.5521 24.5033 27.0024 24.0582 27.0057 23.5059C27.0073 23.2372 26.9006 22.9793 26.7099 22.7901L21.7099 17.7901Z" fill="#C0C9CD"/>
<path d="M19 14.5C20.6569 14.5 22 13.1569 22 11.5C22 9.84315 20.6569 8.5 19 8.5C17.3431 8.5 16 9.84315 16 11.5C16 13.1569 17.3431 14.5 19 14.5Z" fill="#C0C9CD"/>
</g>
<defs>
<clipPath id="clip0">
<rect y="0.5" width="32" height="32" rx="5" fill="white"/>
</clipPath>
</defs>
</svg>
