<svg width="30" height="30" fill="none" xmlns="http://www.w3.org/2000/svg"><g clip-path="url(#clip0)" fill="#ECF0F3"><path d="M25.833 0H4.166a.556.556 0 00-.555.556v28.889c0 .306.249.555.555.555h21.667a.556.556 0 00.556-.555V.555A.556.556 0 0025.833 0zm-.555 28.889H4.721V1.11h20.556v27.78z"/><path d="M23.056 7.778h-8.89a.556.556 0 000 1.111h8.89a.556.556 0 000-1.111zm-.001 3.333H9.722a.556.556 0 000 1.111h13.333a.556.556 0 000-1.11zm0 3.333H9.722a.556.556 0 000 1.111h13.333a.556.556 0 000-1.11zm0 3.334H9.722a.556.556 0 000 1.111h13.333a.556.556 0 000-1.111zm0 3.332H9.722a.556.556 0 000 1.112h13.333a.556.556 0 000-1.111zm-8.889 3.334H9.723a.556.556 0 000 1.111h4.444a.556.556 0 000-1.11z"/></g><defs><clipPath id="clip0"><path fill="#fff" d="M0 0h30v30H0z"/></clipPath></defs></svg>