<svg width="163" height="19" viewBox="0 0 163 19" fill="none" xmlns="http://www.w3.org/2000/svg">
<path d="M8.56641 18.4219C6.44141 18.4219 4.67188 17.8359 3.25781 16.6641C1.84375 15.4922 1.03906 13.9492 0.84375 12.0352H5.01562C5.21094 12.9102 5.625 13.5977 6.25781 14.0977C6.89062 14.5977 7.65625 14.8477 8.55469 14.8477C9.54688 14.8477 10.3789 14.5156 11.0508 13.8516C11.7383 13.1641 12.1367 12.2344 12.2461 11.0625H6.04688V7.875H12.2227C12.0977 6.75781 11.6914 5.86719 11.0039 5.20312C10.3398 4.5625 9.52734 4.24219 8.56641 4.24219C7.67578 4.24219 6.91016 4.50391 6.26953 5.02734C5.62891 5.55078 5.21875 6.25 5.03906 7.125H0.855469C1.02734 5.23438 1.83594 3.68359 3.28125 2.47266C4.72656 1.26953 6.48828 0.667969 8.56641 0.667969C11.0742 0.667969 13.0547 1.45703 14.5078 3.03516C15.9688 4.62109 16.6992 6.78906 16.6992 9.53906C16.6992 12.2969 15.9727 14.4688 14.5195 16.0547C13.0664 17.6328 11.082 18.4219 8.56641 18.4219ZM22.5117 18V4.55859H17.8242V1.08984H31.5V4.55859H26.8125V18H22.5117ZM40.9336 0.796875C43.4961 0.796875 45.5273 1.58203 47.0273 3.15234C48.5273 4.72266 49.2773 6.85547 49.2773 9.55078C49.2773 12.2461 48.5273 14.375 47.0273 15.9375C45.5273 17.5078 43.4961 18.293 40.9336 18.293C38.3633 18.293 36.3281 17.5078 34.8281 15.9375C33.3281 14.375 32.5781 12.2461 32.5781 9.55078C32.5781 6.85547 33.332 4.72266 34.8398 3.15234C36.3398 1.58203 38.3711 0.796875 40.9336 0.796875ZM40.9336 4.28906C39.7305 4.28906 38.7695 4.76172 38.0508 5.70703C37.3242 6.66016 36.9609 7.94141 36.9609 9.55078C36.9609 11.1523 37.3203 12.4297 38.0391 13.3828C38.7578 14.3281 39.7227 14.8008 40.9336 14.8008C42.1367 14.8008 43.0977 14.3281 43.8164 13.3828C44.543 12.4297 44.9062 11.1523 44.9062 9.55078C44.9062 7.94141 44.543 6.66016 43.8164 5.70703C43.0977 4.76172 42.1367 4.28906 40.9336 4.28906Z" fill="#FB837A"/>
<path d="M63.0469 18V3.65625H55.0312V18H51.9961V1.08984H66.0586V18H63.0469ZM76.1719 1.08984C77.8516 1.08984 79.2188 1.60937 80.2734 2.64844C81.3281 3.70312 81.8555 5.07031 81.8555 6.75C81.8555 8.42969 81.3164 9.79297 80.2383 10.8398C79.1602 11.8867 77.7617 12.4102 76.043 12.4102H72.375V18H69.3516V1.08984H76.1719ZM72.375 9.97266H75.3633C76.4492 9.97266 77.2891 9.69141 77.8828 9.12891C78.4844 8.56641 78.7852 7.77344 78.7852 6.75C78.7852 5.73438 78.4883 4.94922 77.8945 4.39453C77.3008 3.83984 76.4609 3.5625 75.375 3.5625H72.375V9.97266ZM91.8281 0.808594C94.2891 0.808594 96.2422 1.59375 97.6875 3.16406C99.125 4.73438 99.8438 6.86328 99.8438 9.55078C99.8438 12.2383 99.125 14.3672 97.6875 15.9375C96.2422 17.5 94.2891 18.2812 91.8281 18.2812C89.3594 18.2812 87.4062 17.5 85.9688 15.9375C84.5234 14.3672 83.8008 12.2383 83.8008 9.55078C83.8008 6.86328 84.5234 4.73438 85.9688 3.16406C87.4062 1.59375 89.3594 0.808594 91.8281 0.808594ZM91.8281 3.38672C90.3203 3.38672 89.1211 3.94141 88.2305 5.05078C87.3398 6.16016 86.8945 7.66016 86.8945 9.55078C86.8945 11.4336 87.3398 12.9297 88.2305 14.0391C89.1211 15.1484 90.3203 15.7031 91.8281 15.7031C93.3359 15.7031 94.5352 15.1484 95.4258 14.0391C96.3164 12.9297 96.7617 11.4336 96.7617 9.55078C96.7617 7.66797 96.3164 6.16797 95.4258 5.05078C94.5352 3.94141 93.3359 3.38672 91.8281 3.38672ZM109.852 18.3398C107.438 18.3398 105.523 17.5508 104.109 15.9727C102.695 14.3945 101.988 12.25 101.988 9.53906C101.988 6.84375 102.699 4.70312 104.121 3.11719C105.535 1.53906 107.445 0.75 109.852 0.75C111.758 0.75 113.379 1.28516 114.715 2.35547C116.051 3.43359 116.844 4.83984 117.094 6.57422H114.094C113.844 5.60547 113.332 4.82812 112.559 4.24219C111.793 3.66406 110.891 3.375 109.852 3.375C108.398 3.375 107.238 3.92969 106.371 5.03906C105.504 6.15625 105.07 7.65625 105.07 9.53906C105.07 11.4375 105.5 12.9414 106.359 14.0508C107.227 15.1602 108.395 15.7148 109.863 15.7148C110.926 15.7148 111.832 15.457 112.582 14.9414C113.324 14.418 113.832 13.6914 114.105 12.7617H117.105C116.777 14.5039 115.973 15.8672 114.691 16.8516C113.402 17.8438 111.789 18.3398 109.852 18.3398ZM130.043 18V10.4531H129.949C128.871 11.4844 127.445 12 125.672 12C123.812 12 122.312 11.4297 121.172 10.2891C120.031 9.14844 119.461 7.63672 119.461 5.75391V1.08984H122.484V5.48438C122.484 6.69531 122.809 7.64453 123.457 8.33203C124.098 9.01953 124.984 9.36328 126.117 9.36328C127.016 9.36328 127.816 9.16797 128.52 8.77734C129.215 8.39453 129.723 7.87109 130.043 7.20703V1.08984H133.055V18H130.043ZM147.305 18H136.359V1.08984H147.305V3.64453H139.383V8.21484H146.871V10.6172H139.383V15.4453H147.305V18ZM154.465 18V3.64453H149.332V1.08984H162.621V3.64453H157.488V18H154.465Z" fill="#3C545C"/>
</svg>
