<svg width="210" height="44" viewBox="0 0 210 44" fill="none" xmlns="http://www.w3.org/2000/svg">
<rect x="185" width="25" height="15" rx="5" fill="#292D32"/>
<g clip-path="url(#clip0)">
<path d="M4.71 42.16V35.08C5.45927 35.2602 6.23013 35.3342 7 35.3C7.86585 35.3665 8.73476 35.2189 9.53003 34.8701C10.3253 34.5213 11.0225 33.982 11.56 33.3L0 7H9.47L16.06 24.87H16.53L22.8 7H32.25L21.46 32.1C19.9467 35.6467 18.28 38.2 16.46 39.76C14.1876 41.676 11.2799 42.6714 8.31 42.55C6.31 42.55 5.1 42.42 4.71 42.16Z" fill="#292D32"/>
<path d="M40.67 38.1499C37.63 34.8165 36.11 30.2832 36.11 24.5499C36.11 18.8165 37.63 14.2999 40.67 10.9999C43.7033 7.66652 47.8633 5.99985 53.15 5.99985C57.2399 5.88714 61.2229 7.31475 64.31 9.99985C65.7496 11.2204 66.9126 12.7338 67.7213 14.4392C68.53 16.1446 68.9659 18.0027 69 19.8899H60.38C60.2132 18.1026 59.3738 16.4453 58.0316 15.2535C56.6893 14.0616 54.9445 13.4241 53.15 13.4699C52.0099 13.4392 50.8807 13.6983 49.868 14.223C48.8554 14.7477 47.9924 15.5208 47.36 16.4699C45.95 18.4699 45.24 21.1499 45.24 24.5799C45.24 28.0099 45.95 30.7499 47.36 32.7299C47.9956 33.6805 48.862 34.4544 49.8781 34.9791C50.8942 35.5037 52.0269 35.7621 53.17 35.7299C54.958 35.7788 56.7006 35.1623 58.06 33.9999C59.3887 32.8281 60.2307 31.2013 60.42 29.4399H69C68.9781 31.3261 68.5506 33.1856 67.7465 34.8921C66.9425 36.5986 65.7807 38.1121 64.34 39.3299C61.2091 41.9573 57.2145 43.3292 53.13 43.1799C47.8767 43.1465 43.7233 41.4699 40.67 38.1499Z" fill="#292D32"/>
<path d="M99.12 42.18V14.18H85.38V42.18H76.38V7H108.02V42.18H99.12Z" fill="#292D32"/>
<path d="M157.91 24.41L147.12 7H157.57L163.89 18.67H164.36L170.73 7H180.73L169.43 24.51L180.59 42.18H170.51L163.82 31H163.35L156.62 42.16H147.09L157.91 24.41Z" fill="#292D32"/>
<path d="M140.82 34.9399H116.82V41.9399H140.82V34.9399Z" fill="#FF857A"/>
<path d="M138 20.9399H119V27.9399H138V20.9399Z" fill="#FEC800"/>
<path d="M136 6.93994H122V13.9399H136V6.93994Z" fill="#01CD52"/>
</g>
<path d="M190.462 11.0586C189.661 11.0586 189.096 10.7363 188.768 10.0918H188.738V11H187.552V3.62695H188.768V6.56152H188.797C189.122 5.9235 189.679 5.60449 190.467 5.60449C191.141 5.60449 191.676 5.85026 192.073 6.3418C192.474 6.83333 192.674 7.4974 192.674 8.33398C192.674 9.16732 192.474 9.82975 192.073 10.3213C191.676 10.8128 191.139 11.0586 190.462 11.0586ZM190.101 6.61523C189.7 6.61523 189.378 6.77311 189.134 7.08887C188.886 7.40462 188.763 7.81966 188.763 8.33398C188.763 8.84831 188.886 9.26335 189.134 9.5791C189.378 9.8916 189.7 10.0479 190.101 10.0479C190.504 10.0479 190.826 9.89323 191.067 9.58398C191.308 9.27148 191.429 8.85482 191.429 8.33398C191.429 7.81315 191.308 7.39648 191.067 7.08398C190.823 6.77148 190.501 6.61523 190.101 6.61523ZM195.774 6.53711C195.42 6.53711 195.123 6.6543 194.886 6.88867C194.648 7.1263 194.516 7.43555 194.49 7.81641H197.02C197.007 7.43229 196.886 7.12305 196.658 6.88867C196.43 6.6543 196.136 6.53711 195.774 6.53711ZM198.167 9.41309C198.089 9.90788 197.833 10.3083 197.4 10.6143C196.967 10.9235 196.44 11.0781 195.818 11.0781C195.031 11.0781 194.407 10.834 193.948 10.3457C193.493 9.85742 193.265 9.19336 193.265 8.35352C193.265 7.51367 193.493 6.8431 193.948 6.3418C194.401 5.84049 195.009 5.58984 195.774 5.58984C196.523 5.58984 197.117 5.82747 197.557 6.30273C197.996 6.77799 198.216 7.41927 198.216 8.22656V8.62695H194.48V8.7002C194.48 9.12988 194.606 9.47493 194.856 9.73535C195.107 9.99902 195.436 10.1309 195.843 10.1309C196.136 10.1309 196.388 10.0658 196.6 9.93555C196.811 9.80859 196.953 9.63444 197.024 9.41309H198.167ZM200.594 4.47168V5.66309H201.604V6.60547H200.594V9.41797C200.594 9.85091 200.809 10.0674 201.238 10.0674C201.349 10.0674 201.469 10.0592 201.6 10.043V10.9756C201.453 11.0081 201.24 11.0244 200.96 11.0244C200.394 11.0244 199.988 10.9137 199.744 10.6924C199.5 10.4678 199.378 10.0983 199.378 9.58398V6.60547H198.65V5.66309H199.378V4.47168H200.594ZM204.354 10.126C204.725 10.126 205.034 10.0218 205.281 9.81348C205.529 9.60514 205.652 9.33984 205.652 9.01758V8.6123L204.432 8.69043C203.755 8.736 203.416 8.98014 203.416 9.42285C203.416 9.6377 203.502 9.80859 203.675 9.93555C203.844 10.0625 204.07 10.126 204.354 10.126ZM203.997 11.0586C203.47 11.0586 203.038 10.9121 202.703 10.6191C202.365 10.3262 202.195 9.94368 202.195 9.47168C202.195 8.99642 202.373 8.62533 202.728 8.3584C203.079 8.09147 203.592 7.93685 204.266 7.89453L205.652 7.81152V7.4209C205.652 7.14095 205.561 6.92448 205.379 6.77148C205.2 6.62174 204.946 6.54688 204.617 6.54688C204.344 6.54688 204.114 6.61198 203.929 6.74219C203.743 6.8724 203.629 7.04655 203.587 7.26465H202.464C202.48 6.77637 202.692 6.37435 203.099 6.05859C203.509 5.74609 204.028 5.58984 204.656 5.58984C205.324 5.58984 205.856 5.74935 206.253 6.06836C206.653 6.38737 206.854 6.81217 206.854 7.34277V11H205.687V10.1406H205.657C205.511 10.4238 205.286 10.6484 204.983 10.8145C204.684 10.9772 204.355 11.0586 203.997 11.0586Z" fill="white"/>
<defs>
<clipPath id="clip0">
<rect width="180.69" height="37.13" fill="white" transform="translate(0 6)"/>
</clipPath>
</defs>
</svg>
