<svg width="123" height="29" fill="none" xmlns="http://www.w3.org/2000/svg"><path d="M12.75 20.445V23H2.05V6.09h3.024v14.355h7.676zM21.668 5.81c2.46 0 4.41.785 5.848 2.355 1.445 1.57 2.168 3.7 2.168 6.387 0 2.687-.723 4.816-2.168 6.386-1.438 1.563-3.387 2.344-5.848 2.344-2.469 0-4.426-.781-5.871-2.343-1.438-1.57-2.156-3.7-2.156-6.387 0-2.688.718-4.817 2.156-6.387 1.445-1.57 3.402-2.355 5.871-2.355zm3.598 4.253c-.891-1.117-2.09-1.675-3.598-1.675s-2.707.554-3.598 1.664c-.89 1.11-1.336 2.61-1.336 4.5 0 1.883.446 3.379 1.336 4.488.89 1.11 2.09 1.664 3.598 1.664s2.707-.555 3.598-1.664c.89-1.11 1.336-2.605 1.336-4.488 0-1.883-.446-3.38-1.336-4.489zm21.632 5.883c0 2.297-.652 4.094-1.957 5.39-1.297 1.298-3.101 1.946-5.414 1.946-2.468 0-4.422-.785-5.859-2.355-1.43-1.578-2.145-3.727-2.145-6.445 0-2.68.711-4.793 2.133-6.34 1.43-1.555 3.367-2.332 5.813-2.332 1.922 0 3.55.52 4.886 1.558 1.336 1.04 2.141 2.406 2.415 4.102H43.7c-.29-.969-.806-1.727-1.548-2.274-.742-.547-1.633-.82-2.672-.82-1.523 0-2.714.535-3.574 1.605-.86 1.07-1.289 2.56-1.289 4.465 0 1.946.442 3.477 1.324 4.594.891 1.117 2.098 1.676 3.621 1.676 1.274 0 2.313-.367 3.118-1.102.812-.734 1.23-1.695 1.254-2.883l.011-.28h-4.078v-2.31h7.031v1.805zM56.824 5.81c2.461 0 4.41.785 5.848 2.355 1.445 1.57 2.168 3.7 2.168 6.387 0 2.687-.723 4.816-2.168 6.386-1.438 1.563-3.387 2.344-5.848 2.344-2.468 0-4.426-.781-5.87-2.343-1.438-1.57-2.157-3.7-2.157-6.387 0-2.688.719-4.817 2.156-6.387 1.445-1.57 3.402-2.355 5.871-2.355zm3.598 4.253c-.89-1.117-2.09-1.675-3.598-1.675s-2.707.554-3.597 1.664c-.891 1.11-1.336 2.61-1.336 4.5 0 1.883.445 3.379 1.336 4.488.89 1.11 2.09 1.664 3.597 1.664 1.508 0 2.707-.555 3.598-1.664.89-1.11 1.336-2.605 1.336-4.488 0-1.883-.446-3.38-1.336-4.489zM73.5 23h-3.023V8.645h-5.133V6.09h13.289v2.555H73.5V23zm14.953 0h-3.012v-6.668L79.511 6.09h3.317l4.102 7.36H87l4.09-7.36h3.293l-5.93 10.242V23zM96.2 6.09h6.821c1.679 0 3.046.523 4.101 1.57 1.055 1.047 1.582 2.41 1.582 4.09 0 1.68-.539 3.043-1.617 4.09-1.078 1.047-2.477 1.57-4.195 1.57h-3.668V23H96.2V6.09zm3.024 2.473v6.41h2.988c1.086 0 1.926-.282 2.519-.844.602-.563.903-1.356.903-2.379 0-1.016-.297-1.8-.891-2.355-.594-.555-1.433-.832-2.519-.832h-3zm22.64 11.882V23h-10.945V6.09h10.945v2.555h-7.922v4.57h7.489v2.402h-7.489v4.828h7.922z" fill="#000"/></svg>