<svg width="210" height="44" fill="none" xmlns="http://www.w3.org/2000/svg"><rect x="185" width="25" height="15" rx="5" fill="#292D32"/><g clip-path="url(#clip0)"><path d="M4.71 42.16v-7.08c.75.18 1.52.254 2.29.22a5.29 5.29 0 004.56-2L0 7h9.47l6.59 17.87h.47L22.8 7h9.45L21.46 32.1c-1.513 3.547-3.18 6.1-5 7.66a11.89 11.89 0 01-8.15 2.79c-2 0-3.21-.13-3.6-.39zm35.96-4.01c-3.04-3.334-4.56-7.867-4.56-13.6S37.63 14.3 40.67 11c3.033-3.333 7.193-5 12.48-5a16.32 16.32 0 0111.16 4A13.28 13.28 0 0169 19.89h-8.62a7.08 7.08 0 00-7.23-6.42 6.74 6.74 0 00-5.79 3c-1.41 2-2.12 4.68-2.12 8.11 0 3.43.71 6.17 2.12 8.15a6.76 6.76 0 005.81 3A7.22 7.22 0 0058.06 34a7.09 7.09 0 002.36-4.56H69a13.15 13.15 0 01-4.66 9.89c-3.13 2.627-7.126 4-11.21 3.85-5.253-.033-9.407-1.71-12.46-5.03zm58.45 4.03v-28H85.38v28h-9V7h31.64v35.18h-8.9zm58.79-17.77L147.12 7h10.45l6.32 11.67h.47L170.73 7h10l-11.3 17.51 11.16 17.67h-10.08L163.82 31h-.47l-6.73 11.16h-9.53l10.82-17.75z" fill="#292D32"/><path d="M140.82 34.94h-24v7h24v-7z" fill="#FF857A"/><path d="M138 20.94h-19v7h19v-7z" fill="#FEC800"/><path d="M136 6.94h-14v7h14v-7z" fill="#01CD52"/></g><path d="M190.462 11.059c-.801 0-1.366-.323-1.694-.967h-.03V11h-1.186V3.627h1.216v2.935h.029c.325-.639.882-.958 1.67-.958.674 0 1.209.246 1.606.738.401.491.601 1.155.601 1.992 0 .833-.2 1.496-.601 1.987-.397.492-.934.738-1.611.738zm-.361-4.444c-.401 0-.723.158-.967.474-.248.316-.371.73-.371 1.245 0 .514.123.93.371 1.245.244.313.566.469.967.469.403 0 .725-.155.966-.464.241-.313.362-.73.362-1.25s-.121-.938-.362-1.25a1.166 1.166 0 00-.966-.469zm5.673-.078c-.354 0-.651.117-.888.352-.238.237-.37.547-.396.927h2.53c-.013-.384-.134-.693-.362-.927-.228-.235-.522-.352-.884-.352zm2.393 2.876c-.078.495-.334.895-.767 1.201-.433.31-.96.464-1.582.464-.787 0-1.411-.244-1.87-.732-.455-.489-.683-1.153-.683-1.992 0-.84.228-1.51.683-2.012.453-.502 1.061-.752 1.826-.752.749 0 1.343.237 1.783.713.439.475.659 1.116.659 1.924v.4h-3.736V8.7c0 .43.126.775.376 1.035.251.264.58.396.987.396.293 0 .545-.065.757-.195a.929.929 0 00.424-.523h1.143zm2.427-4.941v1.191h1.01v.942h-1.01v2.813c0 .433.215.65.644.65.111 0 .231-.009.362-.025v.933c-.147.032-.36.048-.64.048-.566 0-.972-.11-1.216-.332-.244-.224-.366-.594-.366-1.108V6.605h-.728v-.942h.728V4.472h1.216zm3.76 5.654c.371 0 .68-.104.927-.313a.993.993 0 00.371-.795v-.406l-1.22.078c-.677.046-1.016.29-1.016.733 0 .215.086.386.259.513.169.127.395.19.679.19zm-.357.933c-.527 0-.959-.147-1.294-.44-.338-.293-.508-.675-.508-1.147 0-.476.178-.847.533-1.114.351-.267.864-.421 1.538-.463l1.386-.083V7.42c0-.28-.091-.497-.273-.65-.179-.15-.433-.224-.762-.224-.273 0-.503.065-.688.195a.802.802 0 00-.342.523h-1.123c.016-.489.228-.89.635-1.206.41-.313.929-.47 1.557-.47.668 0 1.2.16 1.597.48.4.318.601.743.601 1.274V11h-1.167v-.86h-.03a1.598 1.598 0 01-.674.675 2.03 2.03 0 01-.986.244z" fill="#fff"/><defs><clipPath id="clip0"><path fill="#fff" transform="translate(0 6)" d="M0 0h180.69v37.13H0z"/></clipPath></defs></svg>