<svg width="163" height="19" fill="none" xmlns="http://www.w3.org/2000/svg"><path d="M8.566 18.422c-2.125 0-3.894-.586-5.308-1.758-1.414-1.172-2.219-2.715-2.414-4.629h4.172c.195.875.609 1.563 1.242 2.063.633.5 1.398.75 2.297.75.992 0 1.824-.332 2.496-.996.687-.688 1.086-1.618 1.195-2.79h-6.2V7.876h6.177c-.125-1.117-.532-2.008-1.22-2.672-.663-.64-1.476-.96-2.437-.96-.89 0-1.656.26-2.296.784-.641.524-1.051 1.223-1.23 2.098H.854c.172-1.89.98-3.441 2.426-4.652C4.727 1.27 6.488.668 8.566.668c2.508 0 4.489.789 5.942 2.367 1.46 1.586 2.191 3.754 2.191 6.504 0 2.758-.726 4.93-2.18 6.516-1.453 1.578-3.437 2.367-5.953 2.367zM22.512 18V4.559h-4.688v-3.47H31.5v3.47h-4.688V18h-4.3zM40.934.797c2.562 0 4.593.785 6.093 2.355 1.5 1.57 2.25 3.703 2.25 6.399 0 2.695-.75 4.824-2.25 6.386-1.5 1.57-3.53 2.356-6.093 2.356-2.57 0-4.606-.785-6.106-2.355-1.5-1.563-2.25-3.692-2.25-6.387 0-2.696.754-4.828 2.262-6.399 1.5-1.57 3.531-2.355 6.094-2.355zm0 3.492c-1.203 0-2.164.473-2.883 1.418-.727.953-1.09 2.234-1.09 3.844 0 1.601.36 2.879 1.078 3.832.719.945 1.684 1.418 2.895 1.418 1.203 0 2.164-.473 2.882-1.418.727-.953 1.09-2.23 1.09-3.832 0-1.61-.363-2.89-1.09-3.844-.718-.945-1.68-1.418-2.882-1.418z" fill="#FB837A"/><path d="M63.047 18V3.656H55.03V18h-3.035V1.09H66.06V18h-3.012zM76.172 1.09c1.68 0 3.047.52 4.101 1.558 1.055 1.055 1.583 2.422 1.583 4.102 0 1.68-.54 3.043-1.618 4.09-1.078 1.047-2.476 1.57-4.195 1.57h-3.668V18h-3.023V1.09h6.82zm-3.797 8.883h2.988c1.086 0 1.926-.282 2.52-.844.601-.563.902-1.356.902-2.379 0-1.016-.297-1.8-.89-2.355-.594-.555-1.434-.832-2.52-.832h-3v6.41zM91.828.809c2.461 0 4.414.785 5.86 2.355 1.437 1.57 2.156 3.7 2.156 6.387 0 2.687-.719 4.816-2.156 6.386-1.446 1.563-3.399 2.344-5.86 2.344-2.469 0-4.422-.781-5.86-2.343-1.445-1.57-2.167-3.7-2.167-6.387 0-2.688.722-4.817 2.168-6.387 1.437-1.57 3.39-2.355 5.86-2.355zm0 2.578c-1.508 0-2.707.554-3.597 1.664-.891 1.11-1.337 2.61-1.337 4.5 0 1.883.446 3.379 1.337 4.488.89 1.11 2.09 1.664 3.597 1.664 1.508 0 2.707-.555 3.598-1.664.89-1.11 1.336-2.605 1.336-4.488 0-1.883-.446-3.383-1.336-4.5-.89-1.11-2.09-1.664-3.598-1.664zm18.024 14.953c-2.414 0-4.329-.79-5.743-2.367-1.414-1.579-2.121-3.723-2.121-6.434 0-2.695.711-4.836 2.133-6.422C105.535 1.54 107.445.75 109.852.75c1.906 0 3.527.535 4.863 1.605 1.336 1.079 2.129 2.485 2.379 4.22h-3c-.25-.97-.762-1.747-1.535-2.333-.766-.578-1.668-.867-2.707-.867-1.454 0-2.614.555-3.481 1.664-.867 1.117-1.301 2.617-1.301 4.5 0 1.899.43 3.402 1.289 4.512.868 1.11 2.036 1.664 3.504 1.664 1.063 0 1.969-.258 2.719-.774.742-.523 1.25-1.25 1.523-2.18h3c-.328 1.743-1.132 3.106-2.414 4.09-1.289.993-2.902 1.489-4.839 1.489zm20.191-.34v-7.547h-.094c-1.078 1.031-2.504 1.547-4.277 1.547-1.86 0-3.36-.57-4.5-1.71-1.141-1.142-1.711-2.653-1.711-4.536V1.09h3.023v4.394c0 1.211.325 2.16.973 2.848.641.688 1.527 1.031 2.66 1.031.899 0 1.699-.195 2.403-.586.695-.382 1.203-.906 1.523-1.57V1.09h3.012V18h-3.012zm17.262 0h-10.946V1.09h10.946v2.555h-7.922v4.57h7.488v2.402h-7.488v4.828h7.922V18zm7.16 0V3.645h-5.133V1.09h13.289v2.555h-5.133V18h-3.023z" fill="#3C545C"/></svg>