<?xml version="1.0" encoding="utf-8"?><svg viewBox="0 0 50 51" xmlns="http://www.w3.org/2000/svg" xmlns:xlink="http://www.w3.org/1999/xlink"><style>:root>svg{display:none}:root>svg:target{display:block}</style><svg fill="none" viewBox="0 0 32 32" id="add" xmlns="http://www.w3.org/2000/svg"><path d="M17.6 14.4V8h-3.2v6.4H8v3.2h6.4V24h3.2v-6.4H24v-3.2h-6.4z" fill="#C0C9CD"/><path d="M16 0C7.163 0 0 7.163 0 16s7.163 16 16 16 16-7.163 16-16S24.837 0 16 0zm0 29.104C8.763 29.104 2.896 23.237 2.896 16 2.896 8.763 8.763 2.896 16 2.896c7.233.009 13.095 5.87 13.104 13.104 0 7.237-5.867 13.104-13.104 13.104z" fill="#C0C9CD"/></svg><svg fill="none" viewBox="0 0 16 16" id="arrow-right" xmlns="http://www.w3.org/2000/svg"><g clip-path="url(#abclip0)"><path d="M12.445 7.376L5.325.256A.869.869 0 004.706 0a.869.869 0 00-.619.256L3.563.78a.876.876 0 000 1.238l5.979 5.979-5.986 5.985a.87.87 0 00-.255.62c0 .234.09.453.255.618l.524.524A.87.87 0 004.7 16c.234 0 .454-.09.618-.256l7.127-7.126a.87.87 0 00.255-.62.87.87 0 00-.255-.622z" fill="#FB837A"/></g><defs><clipPath id="abclip0"><rect width="16" height="16" rx="5" fill="#fff"/></clipPath></defs></svg><svg fill="none" viewBox="0 0 32 32" id="avito" xmlns="http://www.w3.org/2000/svg"><circle cx="7.164" cy="7.164" r="7.164" fill="#C0C9CD"/><circle cx="23.259" cy="6.639" r="5.97" fill="#C0C9CD"/><circle cx="23.164" cy="23.164" r="8.836" fill="#C0C9CD"/><circle cx="7.212" cy="23.164" r="4.06" fill="#C0C9CD"/></svg><svg fill="none" viewBox="0 0 46 45" id="calculation" xmlns="http://www.w3.org/2000/svg"><path d="M44.07 21.563c.524 0 .937.412.937.937a.928.928 0 01-.938.938h-.937v-1.875h.937zM23.444 21.563h19.688v1.875H23.444v-1.875z" fill="#FB837A"/><path d="M40.313 45H22.5a.928.928 0 00.938-.938v-.937h16.875a2.809 2.809 0 002.812-2.813V23.439h.938A.928.928 0 0045 22.5v17.813A4.69 4.69 0 0140.312 45zM45 4.688V22.5a.928.928 0 00-.938-.938h-.937V4.688a2.809 2.809 0 00-2.813-2.812H23.439V.937A.928.928 0 0022.5 0h17.813A4.69 4.69 0 0145 4.688z" fill="#FB837A"/><path d="M37.507 11.25c.525 0 .937.412.937.938a.928.928 0 01-.937.937h-7.5a.928.928 0 01-.938-.938c0-.524.413-.937.938-.937h7.5zM37.507 30c.525 0 .937.413.937.938a.928.928 0 01-.937.937h-7.5a.928.928 0 01-.938-.938c0-.524.413-.937.938-.937h7.5zM37.507 35.625c.525 0 .937.413.937.938a.928.928 0 01-.937.937h-7.5a.928.928 0 01-.938-.938c0-.524.413-.937.938-.937h7.5zM23.43 43.125v.938a.928.928 0 01-.937.937.928.928 0 01-.937-.938v-.937h1.875zM21.556 23.438h1.875v19.687h-1.875V23.437z" fill="#FB837A"/><path d="M21.556 21.563h1.875v1.875h-1.875v-1.875zM21.556 1.875h1.875v19.688h-1.875V1.875zM23.43.938v.937h-1.874V.937c0-.525.412-.937.937-.937.525 0 .938.412.938.938zM1.868 21.563h19.688v1.875H1.868v-1.875zM15.007 11.25c.525 0 .937.412.937.938a.928.928 0 01-.937.937h-2.813V11.25h2.813zM14.719 35.906a.906.906 0 010 1.313.88.88 0 01-.656.281.88.88 0 01-.657-.281l-2.156-2.157 1.313-1.312 2.156 2.156zM13.406 30.281a.906.906 0 011.313 0 .906.906 0 010 1.313l-2.156 2.156-1.313-1.313 2.156-2.156zM9.932 33.748l1.313-1.313 1.312 1.313-1.312 1.313-1.313-1.313zM12.18 13.125v2.813a.928.928 0 01-.937.937.928.928 0 01-.937-.938v-2.812h1.875zM10.306 11.25h1.875v1.875h-1.875V11.25zM12.18 8.438v2.812h-1.874V8.437c0-.524.412-.937.937-.937.525 0 .938.412.938.938z" fill="#FB837A"/><path d="M11.243 32.438L9.931 33.75l-2.157-2.156a.906.906 0 010-1.313.906.906 0 011.313 0l2.156 2.157zM10.32 11.25v1.875H7.506a.928.928 0 01-.938-.938c0-.524.413-.937.938-.937h2.812zM9.087 37.219a.88.88 0 01-.656.281.88.88 0 01-.657-.281.906.906 0 010-1.313l2.157-2.156 1.312 1.313-2.156 2.156zM1.875 21.563v1.875H.937A.928.928 0 010 22.5c0-.525.412-.938.938-.938h.937z" fill="#FB837A"/><path d="M0 4.688A4.69 4.69 0 014.688 0H22.5a.928.928 0 00-.938.938v.937H4.688a2.809 2.809 0 00-2.812 2.813v16.875H.937A.928.928 0 000 22.5V4.687zM1.875 40.313a2.809 2.809 0 002.813 2.812h16.875v.938c0 .524.412.937.937.937H4.687A4.69 4.69 0 010 40.312V22.5c0 .525.412.938.938.938h.937v16.875z" fill="#FB837A"/></svg><svg fill="none" viewBox="0 0 46 45" id="calculation-white" xmlns="http://www.w3.org/2000/svg"><path d="M44.07 21.563c.524 0 .937.412.937.937a.928.928 0 01-.938.938h-.937v-1.875h.938zM23.444 21.563h19.688v1.875H23.444v-1.875z" fill="#fff"/><path d="M40.313 45H22.5a.928.928 0 00.938-.938v-.937h16.875a2.809 2.809 0 002.812-2.813V23.439h.938A.928.928 0 0045 22.5v17.813A4.69 4.69 0 0140.312 45zM45 4.688V22.5a.928.928 0 00-.938-.938h-.937V4.688a2.809 2.809 0 00-2.813-2.812H23.439V.937A.928.928 0 0022.5 0h17.813A4.69 4.69 0 0145 4.688z" fill="#fff"/><path d="M37.507 11.25c.525 0 .937.412.937.938a.928.928 0 01-.937.937h-7.5a.928.928 0 01-.938-.938c0-.524.413-.937.938-.937h7.5zM37.507 30c.525 0 .937.413.937.938a.928.928 0 01-.937.937h-7.5a.928.928 0 01-.938-.938c0-.524.413-.937.938-.937h7.5zM37.507 35.625c.525 0 .937.413.937.938a.928.928 0 01-.937.937h-7.5a.928.928 0 01-.938-.938c0-.524.413-.937.938-.937h7.5zM23.43 43.125v.938a.928.928 0 01-.937.937.928.928 0 01-.937-.938v-.937h1.875zM21.556 23.438h1.875v19.687h-1.875V23.437z" fill="#fff"/><path d="M21.556 21.563h1.875v1.875h-1.875v-1.875zM21.556 1.875h1.875v19.688h-1.875V1.875zM23.43.938v.937h-1.874V.937c0-.525.412-.937.937-.937.525 0 .938.412.938.938zM1.868 21.563h19.688v1.875H1.868v-1.875zM15.007 11.25c.525 0 .937.412.937.938a.928.928 0 01-.937.937h-2.813V11.25h2.813zM14.719 35.906a.906.906 0 010 1.313.88.88 0 01-.656.281.88.88 0 01-.657-.281l-2.156-2.157 1.313-1.312 2.156 2.156zM13.406 30.281a.906.906 0 011.313 0 .906.906 0 010 1.313l-2.156 2.156-1.313-1.313 2.156-2.156zM9.932 33.748l1.313-1.313 1.312 1.313-1.312 1.313-1.313-1.313zM12.18 13.125v2.813a.928.928 0 01-.937.937.928.928 0 01-.937-.938v-2.812h1.875zM10.306 11.25h1.875v1.875h-1.875V11.25zM12.18 8.438v2.812h-1.874V8.437c0-.524.412-.937.937-.937.525 0 .938.412.938.938z" fill="#fff"/><path d="M11.243 32.438L9.931 33.75l-2.157-2.156a.906.906 0 010-1.313.906.906 0 011.313 0l2.156 2.157zM10.32 11.25v1.875H7.506a.928.928 0 01-.938-.938c0-.524.413-.937.938-.937h2.812zM9.087 37.219a.88.88 0 01-.656.281.88.88 0 01-.657-.281.906.906 0 010-1.313l2.157-2.156 1.312 1.313-2.156 2.156zM1.875 21.563v1.875H.937A.928.928 0 010 22.5c0-.525.412-.938.938-.938h.937z" fill="#fff"/><path d="M0 4.688A4.69 4.69 0 014.688 0H22.5a.928.928 0 00-.938.938v.937H4.688a2.809 2.809 0 00-2.812 2.813v16.875H.937A.928.928 0 000 22.5V4.687zM1.875 40.313a2.809 2.809 0 002.813 2.812h16.875v.938c0 .524.412.937.937.937H4.687A4.69 4.69 0 010 40.312V22.5c0 .525.412.938.938.938h.937v16.875z" fill="#fff"/></svg><svg fill="none" viewBox="0 0 16 11" id="caret" xmlns="http://www.w3.org/2000/svg"><path d="M8.624 9.945l7.12-7.12a.869.869 0 00.256-.62.869.869 0 00-.256-.618l-.524-.524a.876.876 0 00-1.238 0L8.003 7.042 2.018 1.056A.87.87 0 001.398.8a.87.87 0 00-.618.256l-.524.524A.87.87 0 000 2.2c0 .234.09.453.256.618l7.126 7.127a.87.87 0 00.62.255.87.87 0 00.622-.255z" fill="#3C545C"/></svg><svg fill="none" viewBox="0 0 16 17" id="caret-white" xmlns="http://www.w3.org/2000/svg"><g clip-path="url(#agclip0)"><path d="M8.624 12.945l7.12-7.12a.869.869 0 00.256-.62.869.869 0 00-.256-.618l-.524-.524a.876.876 0 00-1.238 0L8.003 10.04 2.018 4.056a.87.87 0 00-.62-.256.87.87 0 00-.618.256l-.524.524A.87.87 0 000 5.2c0 .234.09.453.256.618l7.126 7.127a.87.87 0 00.62.255.87.87 0 00.622-.255z" fill="#fff"/></g><defs><clipPath id="agclip0"><path fill="#fff" transform="rotate(90 7.75 8.25)" d="M0 0h16v16H0z"/></clipPath></defs></svg><svg fill="none" viewBox="0 0 20 20" id="copy" xmlns="http://www.w3.org/2000/svg"><path d="M12.148 20h-7.46a3.128 3.128 0 01-3.125-3.125V6.289a3.128 3.128 0 013.125-3.125h7.46a3.128 3.128 0 013.125 3.125v10.586A3.128 3.128 0 0112.148 20zM4.688 4.727c-.862 0-1.563.7-1.563 1.562v10.586c0 .861.701 1.563 1.563 1.563h7.46c.862 0 1.563-.701 1.563-1.563V6.289c0-.861-.701-1.562-1.563-1.562h-7.46zm13.71 10.195V3.125A3.128 3.128 0 0015.273 0H6.602a.781.781 0 100 1.563h8.671c.862 0 1.563.7 1.563 1.562v11.797a.781.781 0 001.562 0z" fill="#C0C9CD"/></svg><svg fill="none" viewBox="0 0 20 20" id="cub" xmlns="http://www.w3.org/2000/svg"><path d="M9.652 19.808L10 20l.347-.192 5.208-2.885 3.336-1.847V4.07l-.419-.192-.993-.455L9.999 0 2.522 3.423l-.994.455-.418.191V15.076l3.335 1.847 5.208 2.885zm2.713-12.88L10 8.237l-2.366-1.31L3.416 4.59 10 1.577l6.584 3.014-4.219 2.336zm-1.648 11.035V9.48l6.74-3.733v8.484l-6.74 3.732zM9.283 9.48v8.483l-6.74-3.732V5.747l6.74 3.733z" fill="#fff"/></svg><svg fill="none" viewBox="0 0 20 20" id="date" xmlns="http://www.w3.org/2000/svg"><path d="M17.422 1.563h-1.797V.625a.625.625 0 10-1.25 0v.938h-8.75V.625a.625.625 0 10-1.25 0v.938H2.578A2.581 2.581 0 000 4.14v13.28A2.581 2.581 0 002.578 20h14.844A2.581 2.581 0 0020 17.422V4.14a2.581 2.581 0 00-2.578-2.579zM2.578 2.813h1.797v.624a.625.625 0 101.25 0v-.624h8.75v.624a.625.625 0 101.25 0v-.624h1.797A1.33 1.33 0 0118.75 4.14v1.484H1.25V4.141a1.33 1.33 0 011.328-1.329zM17.422 18.75H2.578a1.33 1.33 0 01-1.328-1.328V6.875h17.5v10.547a1.33 1.33 0 01-1.328 1.328z" fill="#C0C9CD"/></svg><svg fill="none" viewBox="0 0 20 20" id="delete" xmlns="http://www.w3.org/2000/svg"><path d="M17.075 2.928c-3.9-3.9-10.246-3.9-14.146 0A9.94 9.94 0 000 10a9.937 9.937 0 002.93 7.072 9.97 9.97 0 007.072 2.924 9.97 9.97 0 007.073-2.924c3.9-3.9 3.9-10.245 0-14.145zm-1.095 13.05c-3.296 3.295-8.66 3.295-11.955 0A8.398 8.398 0 011.55 10a8.4 8.4 0 012.475-5.978c3.296-3.296 8.659-3.295 11.955 0 3.295 3.296 3.295 8.659 0 11.954z" fill="#fff"/><path d="M13.34 12.142l-2.192-2.19 2.193-2.19a.776.776 0 00-1.096-1.097L10.05 8.857 7.855 6.665A.775.775 0 106.76 7.762l2.193 2.19-2.193 2.19a.775.775 0 101.096 1.097l2.194-2.192 2.195 2.191a.775.775 0 101.095-1.096z" fill="#fff"/></svg><svg fill="none" viewBox="0 0 20 21" id="dots-settings" xmlns="http://www.w3.org/2000/svg"><path d="M11.767 1.232a2.5 2.5 0 11-3.535 3.535 2.5 2.5 0 013.535-3.535zM11.768 16.232a2.5 2.5 0 11-3.536 3.536 2.5 2.5 0 013.536-3.536zM11.768 8.732a2.5 2.5 0 11-3.536 3.536 2.5 2.5 0 013.536-3.536z" fill="#3C545C"/></svg><svg fill="none" viewBox="0 0 16 16" id="empty-green-mark" xmlns="http://www.w3.org/2000/svg"><g clip-path="url(#amclip0)" fill="#ADC8A8"><path d="M2.353 13.648A7.958 7.958 0 008 15.987a7.96 7.96 0 005.647-2.34 7.959 7.959 0 002.34-5.646 7.958 7.958 0 00-2.34-5.647A7.958 7.958 0 008 .013a7.958 7.958 0 00-5.647 2.34A7.958 7.958 0 00.013 8a7.96 7.96 0 002.34 5.647zM8 1.18a6.82 6.82 0 110 13.641 6.82 6.82 0 010-13.64z"/><path d="M8 16a7.972 7.972 0 01-5.657-2.343A7.972 7.972 0 010 8.002a7.972 7.972 0 012.343-5.657A7.972 7.972 0 018 .001a7.972 7.972 0 015.657 2.343A7.97 7.97 0 0116 8.001a7.972 7.972 0 01-2.343 5.657A7.973 7.973 0 018 16zM8 .029a7.945 7.945 0 00-5.638 2.335A7.945 7.945 0 00.027 8.001a7.945 7.945 0 002.335 5.638A7.944 7.944 0 008 15.974a7.945 7.945 0 005.638-2.335A7.945 7.945 0 0015.973 8a7.943 7.943 0 00-2.335-5.638A7.946 7.946 0 008 .028zm0 14.807a6.79 6.79 0 01-4.832-2.002 6.79 6.79 0 01-2.002-4.832 6.79 6.79 0 012.002-4.832A6.79 6.79 0 018 1.167a6.79 6.79 0 014.832 2.002A6.79 6.79 0 0114.834 8a6.79 6.79 0 01-2.002 4.832A6.79 6.79 0 018 14.835zm0-13.64a6.762 6.762 0 00-4.813 1.993A6.762 6.762 0 001.193 8c0 1.818.708 3.527 1.994 4.813A6.762 6.762 0 008 14.808a6.762 6.762 0 004.813-1.994 6.762 6.762 0 001.994-4.813 6.763 6.763 0 00-1.994-4.813A6.762 6.762 0 008 1.194z"/><path d="M6.232 10.908a.583.583 0 00.825 0l4.99-4.99a.583.583 0 10-.824-.825L6.644 9.672 4.777 7.805a.583.583 0 10-.824.824l2.28 2.28z"/><path d="M6.644 11.092a.593.593 0 01-.422-.175L3.943 8.638a.597.597 0 01.844-.844l1.857 1.858 4.57-4.57a.592.592 0 01.843 0 .593.593 0 010 .845l-4.991 4.99a.592.592 0 01-.422.175zm-2.28-3.445a.57.57 0 00-.403.972l2.28 2.28a.566.566 0 00.806 0l4.99-4.992a.566.566 0 000-.805.566.566 0 00-.805 0L6.644 9.69 4.767 7.814a.565.565 0 00-.402-.167z"/></g><defs><clipPath id="amclip0"><path fill="#fff" d="M0 0h16v16H0z"/></clipPath></defs></svg><svg fill="none" viewBox="0 0 20 21" id="energy" xmlns="http://www.w3.org/2000/svg"><g clip-path="url(#anclip0)"><path d="M15.302 7.36A.333.333 0 0015 7.166h-3.95l3.898-6.155A.333.333 0 0014.667.5H9.333a.334.334 0 00-.298.184l-5 10a.333.333 0 00.298.483h3.428l-3.735 8.87a.334.334 0 00.562.345L15.255 7.715a.334.334 0 00.047-.356z" fill="#fff"/></g><defs><clipPath id="anclip0"><path fill="#fff" transform="translate(0 .5)" d="M0 0h20v20H0z"/></clipPath></defs></svg><svg fill="none" viewBox="0 0 16 16" id="eye" xmlns="http://www.w3.org/2000/svg"><path d="M15.898 7.689C15.755 7.493 12.35 2.9 8 2.9S.244 7.493.102 7.688a.528.528 0 000 .623C.244 8.507 3.65 13.099 8 13.099s7.755-4.593 7.898-4.788a.527.527 0 000-.622zM8 12.044c-3.204 0-5.98-3.048-6.8-4.045.82-.997 3.589-4.043 6.8-4.043 3.204 0 5.979 3.047 6.8 4.044-.82.997-3.59 4.044-6.8 4.044z" fill="#C0C9CD"/><path d="M8 4.835A3.168 3.168 0 004.835 8 3.169 3.169 0 008 11.165 3.168 3.168 0 0011.165 8 3.168 3.168 0 008 4.835zm0 5.275A2.112 2.112 0 015.89 8c0-1.164.946-2.11 2.11-2.11 1.163 0 2.11.946 2.11 2.11 0 1.163-.947 2.11-2.11 2.11z" fill="#C0C9CD"/></svg><svg fill="none" viewBox="0 0 20 20" id="fittings" xmlns="http://www.w3.org/2000/svg"><path d="M18.572 9.854a.49.49 0 00-.629-.292l-4.594 1.683 3.714-3.711a.489.489 0 000-.694L14.19 3.966a.49.49 0 00-.694 0l-3.642 3.64 2.043-4.846a.493.493 0 00-.262-.642L7.891.538A.49.49 0 007.248.8L5.231 5.586V.49a.49.49 0 00-.49-.49H.49A.49.49 0 000 .49v18.636c0 .27.22.49.49.49h4.25a.49.49 0 00.17-.032c.053.02.109.032.166.032.056 0 .113-.01.169-.03l14.433-5.288a.49.49 0 00.292-.629l-1.398-3.815zM2.9 18.635H.981V.981h3.27V18.635H2.898zm7.904-15.804L8.015 9.443l-.505 1.198-.505 1.198-.863 2.046-.52 1.235-.391.927V8.111l2.73-6.478 2.842 1.198zM6.88 14.659l.521-1.235L8.844 10l4.998-4.995 2.18 2.18-4.864 4.861-1.65 1.65-3.84 3.836L6.88 14.66zm-.368 3.419l5.186-5.184 6.122-2.242 1.06 2.894-12.368 4.532z" fill="#C0C9CD"/><path d="M2.616 16.62c-.022 0-.042.004-.063.005a.702.702 0 00-.624.537.702.702 0 00.115.581.706.706 0 00.572.293.638.638 0 00.1-.01.7.7 0 00.601-.636c.002-.021.006-.041.006-.063a.707.707 0 00-.707-.708z" fill="#C0C9CD"/></svg><svg fill="none" viewBox="0 0 20 21" id="gallery" xmlns="http://www.w3.org/2000/svg"><path d="M9.008 1.55a.417.417 0 00-.416-.417H1.05a.417.417 0 00-.417.417v7.542c0 .23.187.416.417.416h7.542c.23 0 .416-.186.416-.416V1.55zm-.833 7.125H1.467V1.967h6.708v6.708zM19.383 1.55a.417.417 0 00-.416-.417h-7.542a.417.417 0 00-.417.417v7.542c0 .23.187.416.417.416h7.542c.23 0 .416-.186.416-.416V1.55zm-.833 7.125h-6.708V1.967h6.708v6.708zM9.008 11.925a.417.417 0 00-.416-.417H1.05a.417.417 0 00-.417.417v7.542c0 .23.187.416.417.416h7.542c.23 0 .416-.186.416-.416v-7.542zm-.833 7.083H1.467v-6.666h6.708v6.666zM19.383 11.925a.417.417 0 00-.416-.417h-7.542a.417.417 0 00-.417.417v7.542c0 .23.187.416.417.416h7.542c.23 0 .416-.186.416-.416v-7.542zm-.833 7.083h-6.708v-6.666h6.708v6.666z" fill="#fff"/></svg><svg fill="none" viewBox="0 0 16 16" id="green-mark" xmlns="http://www.w3.org/2000/svg"><path d="M8 0C3.589 0 0 3.589 0 8s3.589 8 8 8 8-3.589 8-8-3.589-8-8-8zm4.055 6.305L7.72 10.638a.665.665 0 01-.942 0L4.612 8.471a.666.666 0 11.943-.942L7.25 9.224l3.862-3.862a.666.666 0 11.943.943z" fill="#6DCC5C"/></svg><svg fill="none" viewBox="0 0 32 32" id="instagram" xmlns="http://www.w3.org/2000/svg"><g clip-path="url(#asclip0)" fill="#C0C9CD"><path d="M31.97 9.408c-.076-1.7-.35-2.87-.745-3.882a7.81 7.81 0 00-1.85-2.838A7.875 7.875 0 0026.543.844C25.524.45 24.361.175 22.661.1 20.948.02 20.404 0 16.06 0c-4.345 0-4.889.019-6.595.094-1.7.075-2.87.35-3.882.744a7.808 7.808 0 00-2.838 1.85A7.878 7.878 0 00.9 5.52C.507 6.539.23 7.7.157 9.402c-.082 1.713-.1 2.257-.1 6.601 0 4.345.018 4.889.093 6.595.075 1.7.35 2.87.744 3.882a7.891 7.891 0 001.85 2.838c.8.813 1.77 1.444 2.833 1.844 1.019.394 2.181.67 3.882.744 1.706.075 2.25.094 6.595.094 4.344 0 4.888-.019 6.595-.094 1.7-.075 2.869-.35 3.881-.744a8.184 8.184 0 004.683-4.682c.393-1.019.669-2.182.744-3.882.075-1.706.093-2.25.093-6.595s-.006-4.888-.08-6.595zm-2.883 13.065c-.069 1.563-.331 2.407-.55 2.97A5.308 5.308 0 0125.5 28.48c-.563.218-1.413.481-2.97.55-1.687.075-2.193.093-6.463.093s-4.782-.018-6.464-.093c-1.563-.069-2.407-.331-2.97-.55a4.925 4.925 0 01-1.837-1.194 4.975 4.975 0 01-1.194-1.838c-.219-.563-.481-1.413-.55-2.97-.075-1.687-.094-2.194-.094-6.463 0-4.27.019-4.783.094-6.464.069-1.563.331-2.407.55-2.97a4.864 4.864 0 011.2-1.837A4.968 4.968 0 016.64 3.55c.563-.22 1.413-.482 2.97-.55 1.687-.075 2.194-.094 6.463-.094 4.276 0 4.782.019 6.464.094 1.563.068 2.407.331 2.97.55a4.921 4.921 0 011.837 1.194 4.973 4.973 0 011.194 1.838c.219.562.482 1.412.55 2.969.075 1.688.094 2.194.094 6.464 0 4.27-.019 4.77-.094 6.457z"/><path d="M16.06 7.783a8.222 8.222 0 00-8.22 8.22 8.222 8.222 0 008.22 8.22 8.222 8.222 0 008.22-8.22 8.222 8.222 0 00-8.22-8.22zm0 13.552a5.333 5.333 0 11.001-10.666 5.333 5.333 0 01-.001 10.666zM26.524 7.458a1.92 1.92 0 11-3.838 0 1.92 1.92 0 013.838 0z"/></g><defs><clipPath id="asclip0"><path fill="#fff" d="M0 0h32v32H0z"/></clipPath></defs></svg><svg fill="none" viewBox="0 0 30 30" id="list" xmlns="http://www.w3.org/2000/svg"><g clip-path="url(#atclip0)" fill="#ECF0F3"><path d="M25.833 0H4.166a.556.556 0 00-.555.556v28.889c0 .306.249.555.555.555h21.667a.556.556 0 00.556-.555V.555A.556.556 0 0025.833 0zm-.555 28.889H4.721V1.11h20.556V28.89z"/><path d="M23.056 7.778h-8.89a.556.556 0 000 1.111h8.89a.556.556 0 000-1.111zM23.055 11.111H9.722a.556.556 0 000 1.111h13.333a.556.556 0 000-1.11zM23.055 14.444H9.722a.556.556 0 000 1.111h13.333a.556.556 0 000-1.11zM23.055 17.778H9.722a.556.556 0 000 1.111h13.333a.556.556 0 000-1.111zM23.055 21.11H9.722a.556.556 0 000 1.112h13.333a.556.556 0 000-1.111zM14.166 24.444H9.723a.556.556 0 000 1.111h4.444a.556.556 0 000-1.11z"/></g><defs><clipPath id="atclip0"><path fill="#fff" d="M0 0h30v30H0z"/></clipPath></defs></svg><svg fill="none" viewBox="0 0 20 20" id="mark-accepted" xmlns="http://www.w3.org/2000/svg"><g clip-path="url(#auclip0)" fill="#fff" fill-opacity=".25"><path d="M2.941 17.06a9.947 9.947 0 007.06 2.923 9.95 9.95 0 007.06-2.924A9.949 9.949 0 0019.981 10a9.949 9.949 0 00-2.924-7.059A9.949 9.949 0 0010 .017a9.948 9.948 0 00-7.06 2.924 9.948 9.948 0 00-2.923 7.06 9.948 9.948 0 002.924 7.059zm7.06-15.586a8.526 8.526 0 110 17.052 8.526 8.526 0 010-17.052z"/><path d="M10 20a9.966 9.966 0 01-7.071-2.929A9.965 9.965 0 010 10.002 9.965 9.965 0 012.929 2.93 9.964 9.964 0 0110 0a9.966 9.966 0 017.071 2.929A9.966 9.966 0 0120 10a9.966 9.966 0 01-2.929 7.071A9.97 9.97 0 0110 20.001zM10 .036a9.931 9.931 0 00-7.047 2.919A9.931 9.931 0 00.034 10a9.93 9.93 0 002.919 7.047A9.933 9.933 0 0010 19.967a9.933 9.933 0 007.047-2.919 9.931 9.931 0 002.919-7.047 9.931 9.931 0 00-2.919-7.047A9.931 9.931 0 0010 .035zm0 18.509a8.487 8.487 0 01-6.04-2.503 8.487 8.487 0 01-2.503-6.04c0-2.282.889-4.427 2.502-6.04A8.487 8.487 0 0110 1.457c2.282 0 4.427.889 6.04 2.502a8.487 8.487 0 012.503 6.041 8.487 8.487 0 01-2.502 6.04A8.487 8.487 0 0110 18.544zm0-17.052c-2.273 0-4.41.885-6.017 2.492a8.453 8.453 0 00-2.492 6.017c0 2.273.885 4.41 2.492 6.016A8.453 8.453 0 0010 18.51c2.273 0 4.41-.886 6.017-2.493a8.453 8.453 0 002.492-6.016c0-2.273-.886-4.41-2.492-6.017A8.453 8.453 0 0010 1.492z"/><path d="M7.79 13.634a.729.729 0 001.03 0l6.24-6.238a.729.729 0 10-1.031-1.03l-5.724 5.723-2.334-2.334a.729.729 0 10-1.03 1.03l2.85 2.85z"/><path d="M8.305 13.865a.741.741 0 01-.527-.219L4.93 10.797a.747.747 0 011.055-1.054l2.321 2.321 5.712-5.71a.74.74 0 01.527-.22c.2 0 .386.078.527.22a.74.74 0 01.219.526.74.74 0 01-.219.528l-6.238 6.238a.74.74 0 01-.528.219zM5.456 9.558a.713.713 0 00-.503 1.215l2.85 2.85a.707.707 0 00.502.208c.19 0 .37-.074.504-.209l6.238-6.238a.707.707 0 00.209-.504.707.707 0 00-.209-.503.707.707 0 00-.503-.208.707.707 0 00-.503.208l-5.736 5.736L5.96 9.767a.707.707 0 00-.503-.209z"/></g><defs><clipPath id="auclip0"><path fill="#fff" d="M0 0h20v20H0z"/></clipPath></defs></svg><svg fill="none" viewBox="0 0 20 20" id="minus" xmlns="http://www.w3.org/2000/svg"><path d="M20 7.703H0v4.593h20V7.703z" fill="#C0C9CD"/></svg><svg fill="none" viewBox="0 0 20 21" id="minus-circle" xmlns="http://www.w3.org/2000/svg"><g clip-path="url(#awclip0)"><g clip-path="url(#awclip1)" fill="#fff"><path d="M10 .5C4.486.5 0 4.986 0 10.5s4.486 10 10 10 10-4.486 10-10-4.486-10-10-10zm0 18.45c-4.66 0-8.45-3.79-8.45-8.45 0-4.66 3.79-8.45 8.45-8.45 4.66 0 8.45 3.79 8.45 8.45 0 4.66-3.79 8.45-8.45 8.45z"/><path d="M13.873 9.656H6.127a.775.775 0 000 1.549h7.746a.775.775 0 000-1.55z"/></g></g><defs><clipPath id="awclip0"><path fill="#fff" transform="translate(0 .5)" d="M0 0h20v20H0z"/></clipPath><clipPath id="awclip1"><path fill="#fff" transform="translate(0 .5)" d="M0 0h20v20H0z"/></clipPath></defs></svg><svg fill="none" viewBox="0 0 20 20" id="miscalculation-tabs-01" xmlns="http://www.w3.org/2000/svg"><path d="M19.524 4.25L10.31.067a.746.746 0 00-.62 0L.476 4.25A.833.833 0 000 5.015c0 .333.188.633.477.763l9.215 4.156a.749.749 0 00.616 0l9.215-4.156c.289-.13.477-.43.477-.763a.834.834 0 00-.476-.765zM10 8.266L2.783 5.01 10 1.736l7.217 3.276L10 8.267z" fill="#fff"/><path d="M19.937 10.434c-.17-.362-.632-.531-1.03-.377L10 13.51l-8.906-3.452c-.4-.154-.86.015-1.03.377-.171.363.015.783.414.938l9.214 3.57a.854.854 0 00.616 0l9.214-3.57c.4-.155.585-.575.415-.938z" fill="#fff"/><path d="M19.936 15.431c-.17-.36-.633-.528-1.03-.373L10 18.516l-8.905-3.458c-.4-.155-.86.012-1.031.373-.171.36.013.779.412.933l9.214 3.578a.857.857 0 00.62 0l9.214-3.578c.399-.155.583-.572.412-.933z" fill="#fff"/></svg><svg fill="none" viewBox="0 0 20 20" id="miscalculation-tabs-02" xmlns="http://www.w3.org/2000/svg"><path d="M19.142 15.015c-1.79-1.79-1.672-1.677-1.723-1.714l-4.738-3.499 1.838-1.837A4.109 4.109 0 0018.796 7a4.107 4.107 0 00.802-4.667.586.586 0 00-.943-.162L17.14 3.687a.586.586 0 01-.829-.828l1.515-1.515A.586.586 0 0017.665.4a4.107 4.107 0 00-4.667.801 4.109 4.109 0 00-.964 4.277L9.914 7.6c-.431-.336.138.238-3.927-4.073l.426-.426a.586.586 0 00-.113-.916L3.163.3A2.083 2.083 0 00.615.615 2.083 2.083 0 00.3 3.164L2.183 6.3a.586.586 0 00.917.113l.402-.402c4.044 4.288 3.511 3.705 3.831 4.117l.024.027-1.88 1.88a4.109 4.109 0 00-4.277.963 4.107 4.107 0 00-.8 4.667.586.586 0 00.942.162l1.515-1.515a.587.587 0 01.829.828L2.17 18.656a.586.586 0 00.162.943 4.107 4.107 0 004.667-.801 4.109 4.109 0 00.964-4.277l1.605-1.606 3.738 4.543c.028.034-.066-.062 1.606 1.61a3.144 3.144 0 002.213.924c.584 0 1.16-.17 1.645-.519a2.931 2.931 0 00.372-4.458zM3.94 4.769a.586.586 0 00-.84-.012l-.298.298L1.306 2.56A.913.913 0 012.56 1.306l2.494 1.496-.298.298a.586.586 0 00-.011.816C9.415 8.87 8.68 8.124 9.079 8.434l-.889.889c-.307-.395.407.384-4.25-4.554zm2.918 9.2a.586.586 0 00-.115.667 2.934 2.934 0 01-.572 3.333 2.933 2.933 0 01-2.486.829l.829-.829a1.756 1.756 0 10-2.485-2.485l-.829.829a2.936 2.936 0 01.829-2.486 2.934 2.934 0 013.334-.572.586.586 0 00.666-.115l7.11-7.109a.586.586 0 00.114-.667 2.934 2.934 0 01.573-3.333 2.935 2.935 0 012.485-.829l-.828.829a1.746 1.746 0 00-.515 1.242 1.76 1.76 0 003 1.243l.829-.829a2.936 2.936 0 01-.83 2.486 2.934 2.934 0 01-3.333.572.586.586 0 00-.667.115l-7.11 7.109zm3.54-1.883l1.445-1.446 1.474 1.088-1.76 1.76c-1.197-1.454-1.123-1.367-1.16-1.402zm7.687 6.437c-.683.492-1.691.37-2.345-.284l-1.548-1.548-1.888-2.294 1.966-1.965 2.418 1.785 1.626 1.626a1.758 1.758 0 01-.23 2.68z" fill="#fff"/></svg><svg fill="none" viewBox="0 0 20 20" id="miscalculation-tabs-03" xmlns="http://www.w3.org/2000/svg"><path d="M18.125 0H1.875C.839 0 0 .84 0 1.875v16.25C0 19.16.84 20 1.875 20h16.25C19.16 20 20 19.16 20 18.125V1.875C20 .839 19.16 0 18.125 0zm.625 18.125c0 .345-.28.625-.625.625H1.875a.625.625 0 01-.625-.625V1.875c0-.345.28-.625.625-.625h16.25c.345 0 .625.28.625.625v16.25z" fill="#fff"/><path d="M13.569 10.806a.625.625 0 00-.881 0l-1.438 1.438L8.57 9.563a.625.625 0 00-.881 0l-4.375 4.375A.625.625 0 003.75 15h12.5a.625.625 0 00.444-1.069l-3.125-3.125zM11.875 8.75a1.875 1.875 0 100-3.75 1.875 1.875 0 000 3.75z" fill="#fff"/></svg><svg fill="none" viewBox="0 0 26 30" id="pdf" xmlns="http://www.w3.org/2000/svg"><path d="M6.837 19.3c0-.497-.346-.794-.956-.794-.25 0-.418.024-.506.048v1.598c.104.024.233.032.41.032.65 0 1.052-.329 1.052-.883zM10.613 18.523c-.274 0-.45.023-.554.048v3.54c.104.024.273.024.425.024 1.108.008 1.831-.602 1.831-1.894.008-1.124-.65-1.718-1.702-1.718z" fill="#000"/><path d="M17.629 0H5.579a3.198 3.198 0 00-3.192 3.193V15h-.312c-.71 0-1.287.576-1.287 1.287v7.803c0 .71.576 1.286 1.287 1.286h.312v1.431A3.196 3.196 0 005.58 30h16.44a3.196 3.196 0 003.192-3.193V7.557L17.63 0zM4.163 17.695c.378-.064.908-.112 1.654-.112.755 0 1.293.144 1.654.433.345.273.578.723.578 1.253 0 .53-.176.98-.497 1.284-.418.394-1.036.57-1.759.57-.16 0-.305-.008-.417-.023v1.934H4.163v-5.34zm17.857 10.35H5.58a1.239 1.239 0 01-1.237-1.238v-1.43h15.326c.71 0 1.287-.576 1.287-1.287v-7.803c0-.711-.576-1.287-1.287-1.287H4.343V3.193c0-.68.555-1.236 1.237-1.236l11.317-.011v4.183c0 1.222.992 2.214 2.215 2.214l4.098-.012.046 18.476c0 .683-.554 1.238-1.236 1.238zM8.83 23.01v-5.315c.45-.072 1.036-.112 1.655-.112 1.027 0 1.694.184 2.216.578.562.417.915 1.083.915 2.04 0 1.035-.377 1.75-.9 2.191-.57.474-1.436.698-2.496.698a10.6 10.6 0 01-1.39-.08zm8.763-3.147v.995H15.65v2.177h-1.228v-5.412h3.308v1.003h-2.08v1.237h1.943z" fill="#000"/></svg><svg fill="none" viewBox="0 0 16 16" id="play" xmlns="http://www.w3.org/2000/svg"><path d="M8 0a8 8 0 100 16A8 8 0 008 0zm0 14.528A6.528 6.528 0 018 1.472 6.536 6.536 0 0114.528 8 6.528 6.528 0 018 14.528z" fill="#ADC8A8"/><path d="M5.6 3.304v9.392L12.64 8 5.6 3.304zm1.6 2.808L10.088 8 7.2 9.848V6.112z" fill="#ADC8A8"/></svg><svg fill="none" viewBox="0 0 20 20" id="plus" xmlns="http://www.w3.org/2000/svg"><g clip-path="url(#bcclip0)" fill="#C0C9CD"><path d="M20 7.703H0v4.593h20V7.703z"/><path d="M7.704 0v20h4.592V0H7.704z"/></g><defs><clipPath id="bcclip0"><path fill="#fff" d="M0 0h20v20H0z"/></clipPath></defs></svg><svg fill="none" viewBox="0 0 20 21" id="plus-circle" xmlns="http://www.w3.org/2000/svg"><g clip-path="url(#bdclip0)"><g clip-path="url(#bdclip1)" fill="#fff"><path d="M10 .5C4.486.5 0 4.986 0 10.5s4.486 10 10 10 10-4.486 10-10-4.486-10-10-10zm0 18.45c-4.66 0-8.45-3.79-8.45-8.45 0-4.66 3.79-8.45 8.45-8.45 4.66 0 8.45 3.79 8.45 8.45 0 4.66-3.79 8.45-8.45 8.45z"/><path d="M13.873 9.656h-3.098V6.557a.774.774 0 10-1.55 0v3.099H6.128a.774.774 0 100 1.549h3.099v3.098a.774.774 0 101.549 0v-3.098h3.098a.774.774 0 100-1.55z"/></g></g><defs><clipPath id="bdclip0"><path fill="#fff" transform="translate(0 .5)" d="M0 0h20v20H0z"/></clipPath><clipPath id="bdclip1"><path fill="#fff" transform="translate(0 .5)" d="M0 0h20v20H0z"/></clipPath></defs></svg><svg fill="none" viewBox="0 0 20 20" id="print" xmlns="http://www.w3.org/2000/svg"><path d="M17.07 5.04h-.547V2.93A2.933 2.933 0 0013.593 0H6.407a2.933 2.933 0 00-2.93 2.93v2.11H2.93A2.933 2.933 0 000 7.968v4.687a2.933 2.933 0 002.93 2.93h.547v2.656c0 .97.788 1.758 1.757 1.758h9.532a1.76 1.76 0 001.757-1.758v-2.656h.547a2.933 2.933 0 002.93-2.93V7.97a2.933 2.933 0 00-2.93-2.93zM4.648 2.93c0-.97.789-1.758 1.758-1.758h7.188c.969 0 1.758.788 1.758 1.758v2.11H4.648V2.93zm10.704 15.312a.587.587 0 01-.586.586H5.234a.587.587 0 01-.586-.586v-5.781h10.704v5.781zm3.476-5.586a1.76 1.76 0 01-1.758 1.758h-.547v-1.953h.352a.586.586 0 100-1.172H3.125a.586.586 0 100 1.172h.352v1.953H2.93a1.76 1.76 0 01-1.758-1.758V7.97c0-.97.788-1.758 1.758-1.758h14.14c.97 0 1.758.788 1.758 1.758v4.687z" fill="#000"/><path d="M11.563 13.79H8.437a.586.586 0 100 1.17h3.126a.586.586 0 100-1.17zM11.563 16.29H8.437a.586.586 0 100 1.17h3.126a.586.586 0 100-1.17zM5 7.54H3.125a.586.586 0 000 1.17H5a.586.586 0 000-1.17z" fill="#000"/></svg><svg fill="none" viewBox="0 0 18 19" id="question-circle" xmlns="http://www.w3.org/2000/svg"><path d="M9 14.685a.879.879 0 100-1.757.879.879 0 000 1.757z" fill="#fff"/><path d="M9 .5c-4.974 0-9 4.025-9 9 0 4.974 4.025 9 9 9 4.974 0 9-4.025 9-9 0-4.974-4.025-9-9-9zm0 16.594A7.59 7.59 0 011.406 9.5 7.59 7.59 0 019 1.906 7.59 7.59 0 0116.594 9.5 7.59 7.59 0 019 17.094z" fill="#fff"/><path d="M9 5.018A2.816 2.816 0 006.187 7.83a.703.703 0 101.407 0c0-.775.63-1.406 1.406-1.406.775 0 1.406.63 1.406 1.406 0 .775-.63 1.406-1.406 1.406a.703.703 0 00-.703.703v1.758a.703.703 0 001.406 0v-1.143a2.818 2.818 0 002.11-2.724A2.816 2.816 0 009 5.018z" fill="#fff"/></svg><svg fill="none" viewBox="0 0 20 21" id="services" xmlns="http://www.w3.org/2000/svg"><g clip-path="url(#bgclip0)"><g clip-path="url(#bgclip1)" fill="#fff"><path d="M17.07 5.54h-.547V3.43A2.933 2.933 0 0013.593.5H6.407a2.933 2.933 0 00-2.93 2.93v2.11H2.93A2.933 2.933 0 000 8.468v4.687a2.933 2.933 0 002.93 2.93h.547v2.656c0 .97.788 1.758 1.757 1.758h9.532a1.76 1.76 0 001.757-1.758v-2.656h.547a2.933 2.933 0 002.93-2.93V8.47a2.933 2.933 0 00-2.93-2.93zM4.648 3.43c0-.97.789-1.758 1.758-1.758h7.188c.969 0 1.758.788 1.758 1.758v2.11H4.648V3.43zm10.704 15.312a.587.587 0 01-.586.586H5.234a.587.587 0 01-.586-.586v-5.781h10.704v5.781zm3.476-5.586a1.76 1.76 0 01-1.758 1.758h-.547v-1.953h.352a.586.586 0 100-1.172H3.125a.586.586 0 100 1.172h.352v1.953H2.93a1.76 1.76 0 01-1.758-1.758V8.47c0-.97.788-1.758 1.758-1.758h14.14c.97 0 1.758.788 1.758 1.758v4.687z"/><path d="M11.563 14.29H8.437a.586.586 0 100 1.17h3.126a.586.586 0 100-1.17zM11.563 16.79H8.437a.586.586 0 100 1.17h3.126a.586.586 0 100-1.17zM5 8.04H3.125a.586.586 0 000 1.17H5a.586.586 0 000-1.17z"/></g></g><defs><clipPath id="bgclip0"><path fill="#fff" transform="translate(0 .5)" d="M0 0h20v20H0z"/></clipPath><clipPath id="bgclip1"><path fill="#fff" transform="translate(0 .5)" d="M0 0h20v20H0z"/></clipPath></defs></svg><svg fill="none" viewBox="0 0 32 32" id="settings" xmlns="http://www.w3.org/2000/svg"><path d="M31.042 19.507l-2.942-2.3c.038-.355.07-.77.07-1.208 0-.439-.031-.854-.07-1.208l2.944-2.302c.547-.432.696-1.198.348-1.837L28.334 5.36c-.327-.597-1.043-.904-1.77-.636l-3.47 1.393a11.9 11.9 0 00-2.084-1.209l-.528-3.681A1.416 1.416 0 0019.068 0h-6.133c-.719 0-1.325.528-1.41 1.216l-.53 3.695c-.699.314-1.385.714-2.08 1.209l-3.48-1.397c-.652-.252-1.432.03-1.756.625L.616 10.647a1.434 1.434 0 00.347 1.846l2.941 2.3c-.046.45-.069.84-.069 1.207 0 .367.023.757.07 1.208L.96 19.51c-.546.434-.694 1.2-.346 1.838l3.058 5.292c.327.596 1.036.905 1.77.636l3.47-1.394c.664.48 1.362.884 2.083 1.21l.528 3.68c.087.701.693 1.229 1.413 1.229h6.134c.718 0 1.326-.528 1.412-1.216l.529-3.693a12.324 12.324 0 002.08-1.211l3.48 1.397c.168.066.343.099.523.099.517 0 .993-.283 1.233-.723l3.072-5.32a1.44 1.44 0 00-.357-1.826zm-15.04 1.826A5.339 5.339 0 0110.668 16a5.339 5.339 0 015.334-5.333A5.339 5.339 0 0121.335 16a5.339 5.339 0 01-5.333 5.333z" fill="#C0C9CD"/></svg><svg fill="none" viewBox="0 0 16 17" id="sort" xmlns="http://www.w3.org/2000/svg"><g clip-path="url(#biclip0)" fill="#C0C9CD"><path d="M13.423 11.645c.516-.517.581-1.356.09-1.898a1.378 1.378 0 00-2.001-.065l-2.596 2.595a1.286 1.286 0 01-1.82 0L4.474 9.67a1.378 1.378 0 00-2.001.065c-.478.555-.413 1.394.103 1.91L7.031 16.1c.271.27.62.4.969.4.348 0 .697-.13.968-.4l4.455-4.455zM7.031.889L2.576 5.344c-.516.516-.581 1.356-.09 1.898.53.594 1.446.62 2.001.064l2.609-2.608a1.286 1.286 0 011.82 0l2.609 2.621c.555.556 1.472.53 2.001-.064.478-.543.414-1.382-.09-1.898L8.981.902c-.271-.272-.62-.4-.968-.4a1.304 1.304 0 00-.982.387z"/></g><defs><clipPath id="biclip0"><path fill="#fff" transform="rotate(-90 8.25 8.25)" d="M0 0h16v16H0z"/></clipPath></defs></svg><svg fill="none" viewBox="0 0 20 20" id="square" xmlns="http://www.w3.org/2000/svg"><g clip-path="url(#bjclip0)"><path d="M17.023 10.001l2.722-1.996a.625.625 0 000-1.008L10.37.122a.627.627 0 00-.74 0L.255 6.997a.625.625 0 000 1.008l2.722 1.996-2.722 1.996a.625.625 0 000 1.008L9.63 19.88a.626.626 0 00.74 0l9.375-6.875a.625.625 0 000-1.008L17.023 10zM10 1.401l8.318 6.1-8.318 6.1-8.318-6.1L10 1.4zm0 17.2l-8.318-6.1 2.352-1.725L9.63 14.88a.626.626 0 00.74 0l5.596-4.104 2.352 1.725-8.318 6.1z" fill="#C0C9CD"/></g><defs><clipPath id="bjclip0"><path fill="#fff" d="M0 0h20v20H0z"/></clipPath></defs></svg><svg fill="none" viewBox="0 0 32 32" id="sundress" xmlns="http://www.w3.org/2000/svg"><path d="M26.58 8.396c-1.29-4.674-4.21-7.663-6.792-6.949-1.197.33-2.047 1.416-2.419 3.057l-1.037 1.294a13.716 13.716 0 01-5.193 4.528l-.338.166A5.031 5.031 0 008 15.02v3.48A1.502 1.502 0 009.5 20h.361a1.35 1.35 0 000 .933H8a.5.5 0 00-.5.5v9.113a.5.5 0 00.5.5h1.709a.499.499 0 00.382-.179l1.559-1.856h8.646l1.559 1.856a.5.5 0 00.383.179h1.708a.5.5 0 00.5-.5v-9.113a.5.5 0 00-.5-.5h-1.53a1.45 1.45 0 00.084-.466A1.468 1.468 0 0021.033 19h-2.125c.059-.16.09-.329.092-.5a1.5 1.5 0 10-3 0c.002.17.033.34.092.5H15v-.5a1.502 1.502 0 00-1.5-1.5h-2.22v-2.177a16.086 16.086 0 018.06 1.28l1.472.645c1.01 1.115 2.11 1.76 3.152 1.76.22 0 .44-.03.653-.088 2.465-.68 3.327-5.083 1.963-10.024zM9.475 30.046H8.5V29.01h1.844l-.869 1.035zm13.971 0h-.975l-.87-1.035h1.845v1.035zm0-2.035H8.5v-6.078h14.946v6.078zM21.5 20.467a.467.467 0 01-.467.466h-9.789a.465.465 0 110-.933h9.79a.467.467 0 01.466.467zM17 18.5a.5.5 0 111 0 .5.5 0 01-1 0zm-3 0v.5H9.5a.5.5 0 01-.5-.5V18h4.5a.501.501 0 01.5.5zm-3.281-4.621a.5.5 0 00-.44.496V17H9v-1.98a4.035 4.035 0 012.246-3.631l.337-.166a14.665 14.665 0 005.552-4.83l.025-.031c-.023 1.341.186 2.851.63 4.46.455 1.649 1.093 3.116 1.832 4.318a16.969 16.969 0 00-8.903-1.261zm13.632 3.577c-.811.224-1.86-.305-2.871-1.45a.488.488 0 00-.029-.031c-1.042-1.194-2.042-3.045-2.698-5.418-.588-2.13-.749-4.138-.453-5.653.268-1.369.89-2.254 1.754-2.492.16-.044.327-.066.493-.066 1.711 0 3.932 2.198 5.07 6.316 1.295 4.694.391 8.337-1.266 8.794z" fill="#C0C9CD"/><path d="M9.5 23.5v3a.5.5 0 00.5.5h12a.5.5 0 00.5-.5v-3a.5.5 0 00-.5-.5H10a.5.5 0 00-.5.5zm1 .5h11v2h-11v-2z" fill="#C0C9CD"/></svg><svg fill="none" viewBox="0 0 32 32" id="traffic" xmlns="http://www.w3.org/2000/svg"><g clip-path="url(#blclip0)" fill="#C0C9CD"><path d="M.479 23.293l2.219.536a.63.63 0 00.146.017h12.667c.345 0 .625-.28.625-.626V6.356a.626.626 0 10-1.25 0v9.786h-.6a8.291 8.291 0 01-3.5-.78l-.531-9.042a.626.626 0 10-1.248.073l.527 8.963-4.322 1.788a1.97 1.97 0 01-.375.113l-.005.001a1.962 1.962 0 01-.372.036h-.002l-.958-.001h-.005a3.247 3.247 0 00-3.059 2.17l-.4 1.14a.627.627 0 00-.035.208H0v1.873c0 .29.198.541.479.609zm2.44-.7l-1.669-.402v-.57l1.39.363c.052.013.105.02.158.02h12.088v.59H2.918zM1.614 19.88a1.996 1.996 0 011.88-1.334h.003l.958.001h.004c.09 0 .18-.004.269-.012l.973.976a.623.623 0 00.884 0 .627.627 0 000-.886l-.49-.49.781-.323.98.982a.622.622 0 00.884 0 .627.627 0 000-.885l-.613-.615.587-.243.97.972a.622.622 0 00.883 0 .627.627 0 000-.886l-.602-.604.194-.08a9.545 9.545 0 004.125.943h.6v3.356H2.879l-1.438-.375.175-.497zM17.033 23.451a.63.63 0 00.073.198l.935 1.622a.624.624 0 00.718.288l2.189-.648a.62.62 0 00.135-.058l10.103-5.845c.376-.217.645-.569.757-.989.113-.42.055-.86-.162-1.236l-.419-.727-2.274-3.946-3.128-8.415a.624.624 0 10-1.172.438l2.963 7.967-.604.349A8.29 8.29 0 0123.8 13.52l-3.3-7.419a.624.624 0 10-1.142.51l3.327 7.48-2.895 3.772a1.993 1.993 0 01-.579.507l-.83.479a3.255 3.255 0 00-1.57 3.414l.222 1.188zm13.703-5.756a.374.374 0 01-.175.229L20.523 23.73l-1.646.487-.284-.494 1.384-.382a.642.642 0 00.147-.061l10.468-6.056.107.184c.05.088.063.189.037.286zm-11.732 2.24l.83-.48c.08-.045.157-.095.231-.147l1.33.357a.625.625 0 00.323-1.21l-.669-.179.515-.67 1.34.359a.626.626 0 00.323-1.21l-.838-.225.387-.504 1.325.356a.626.626 0 00.324-1.21l-.824-.221.129-.167a9.548 9.548 0 004.043-1.25l.52-.301 1.674 2.907-10.399 6.016-1.431.395-.098-.518a2 2 0 01.965-2.099zM6.792 26.452H.625a.626.626 0 000 1.252h6.167a.626.626 0 000-1.252zM9.937 26.452a.63.63 0 00-.625.626.63.63 0 00.625.626.629.629 0 00.625-.626.63.63 0 00-.625-.626zM31.372 25.007h-6.166a.626.626 0 000 1.253h6.166a.626.626 0 000-1.253zM22.166 27.516H16a.626.626 0 000 1.253h6.166a.626.626 0 000-1.253z"/></g><defs><clipPath id="blclip0"><path fill="#fff" d="M0 0h32v32H0z"/></clipPath></defs></svg><svg fill="none" viewBox="0 0 16 11" id="trigger-dropdown" xmlns="http://www.w3.org/2000/svg"><path d="M8.624 9.945l7.12-7.12a.869.869 0 00.256-.62.869.869 0 00-.256-.618l-.524-.525a.876.876 0 00-1.238 0l-5.979 5.98-5.985-5.986A.87.87 0 001.398.8a.87.87 0 00-.618.256l-.524.524A.869.869 0 000 2.199c0 .234.09.454.256.619l7.126 7.127a.87.87 0 00.62.255.87.87 0 00.622-.255z" fill="#fff"/></svg><svg fill="none" viewBox="0 0 33 33" id="upload" xmlns="http://www.w3.org/2000/svg"><g clip-path="url(#bnclip0)" fill="#C0C9CD"><path d="M20.896 23.81l-2.403 2.403-.637 1.341V14.541H15.2v12.947l-.611-1.248-2.43-2.43-1.806 1.686 6.175 6.175 6.121-6.109-1.753-1.752z"/><path d="M25.16 7.822h-.134a9.92 9.92 0 00-9.241-6.493c-5.478-.037-9.95 4.374-9.986 9.852v.625a5.352 5.352 0 10.106 10.702h6.64v-2.656h-6.64a2.709 2.709 0 010-5.417c.345 0 2.656.106 2.656.106s-.12-2.736-.12-3.36a7.25 7.25 0 0114.341-1.62l.28 1.235 1.247-.225a4.64 4.64 0 01.85-.093 4.687 4.687 0 110 9.374h-4.647v2.656h4.647a7.343 7.343 0 000-14.686z"/></g><defs><clipPath id="bnclip0"><path fill="#fff" transform="translate(.5 .5)" d="M0 0h32v32H0z"/></clipPath></defs></svg><svg fill="none" viewBox="0 0 50 51" id="upload-data" xmlns="http://www.w3.org/2000/svg"><g clip-path="url(#boclip0)" fill="#ECF0F3"><path d="M32.218.789a1.21 1.21 0 00-.87-.387H11.844c-3.599 0-6.57 2.96-6.57 6.558v36.884c0 3.6 2.971 6.558 6.57 6.558h26.474c3.599 0 6.57-2.959 6.57-6.558V14.557c0-.314-.145-.616-.35-.846L32.217.79zm.35 3.877l8.249 8.659h-5.362a2.876 2.876 0 01-2.887-2.874V4.666zm5.749 43.321H11.843c-2.258 0-4.154-1.872-4.154-4.143V6.96c0-2.258 1.884-4.142 4.155-4.142h18.309v7.633a5.283 5.283 0 005.302 5.29h7.016v28.103c0 2.271-1.884 4.143-4.154 4.143z"/><path d="M35.02 39.654H15.14c-.664 0-1.207.543-1.207 1.208 0 .664.543 1.207 1.207 1.207h19.892c.664 0 1.208-.543 1.208-1.207 0-.665-.544-1.208-1.22-1.208zM18.896 26.658l4.976-5.35v13.188c0 .665.544 1.208 1.208 1.208.665 0 1.208-.543 1.208-1.208V21.308l4.976 5.35c.241.254.555.387.881.387.29 0 .592-.109.822-.326.483-.46.519-1.22.06-1.703l-7.077-7.597a1.217 1.217 0 00-.882-.386c-.338 0-.652.145-.881.386l-7.078 7.597a1.204 1.204 0 00.06 1.703 1.232 1.232 0 001.727-.06z"/></g><defs><clipPath id="boclip0"><path fill="#fff" transform="translate(0 .5)" d="M0 0h50v50H0z"/></clipPath></defs></svg><svg fill="none" viewBox="0 0 32 33" id="upload-miscalculation" xmlns="http://www.w3.org/2000/svg"><g clip-path="url(#bpclip0)" fill="#C0C9CD"><path d="M29 .5H3a3 3 0 00-3 3v26a3 3 0 003 3h26a3 3 0 003-3v-26a3 3 0 00-3-3zm1 29a1 1 0 01-1 1H3a1 1 0 01-1-1v-26a1 1 0 011-1h26a1 1 0 011 1v26z"/><path d="M21.71 17.79a1 1 0 00-1.41 0l-2.3 2.3-4.29-4.29a1 1 0 00-1.41 0l-7 7a1 1 0 00.7 1.7h20a1 1 0 00.71-1.71l-5-5zM19 14.5a3 3 0 100-6 3 3 0 000 6z"/></g><defs><clipPath id="bpclip0"><rect y=".5" width="32" height="32" rx="5" fill="#fff"/></clipPath></defs></svg></svg>