<svg width="123" height="29" viewBox="0 0 123 29" fill="none" xmlns="http://www.w3.org/2000/svg">
<path d="M12.75 20.4453V23H2.05078V6.08984H5.07422V20.4453H12.75ZM21.668 5.80859C24.1289 5.80859 26.0781 6.59375 27.5156 8.16406C28.9609 9.73438 29.6836 11.8633 29.6836 14.5508C29.6836 17.2383 28.9609 19.3672 27.5156 20.9375C26.0781 22.5 24.1289 23.2812 21.668 23.2812C19.1992 23.2812 17.2422 22.5 15.7969 20.9375C14.3594 19.3672 13.6406 17.2383 13.6406 14.5508C13.6406 11.8633 14.3594 9.73438 15.7969 8.16406C17.2422 6.59375 19.1992 5.80859 21.668 5.80859ZM25.2656 10.0625C24.375 8.94531 23.1758 8.38672 21.668 8.38672C20.1602 8.38672 18.9609 8.94141 18.0703 10.0508C17.1797 11.1602 16.7344 12.6602 16.7344 14.5508C16.7344 16.4336 17.1797 17.9297 18.0703 19.0391C18.9609 20.1484 20.1602 20.7031 21.668 20.7031C23.1758 20.7031 24.375 20.1484 25.2656 19.0391C26.1562 17.9297 26.6016 16.4336 26.6016 14.5508C26.6016 12.668 26.1562 11.1719 25.2656 10.0625ZM46.8984 15.9453C46.8984 18.2422 46.2461 20.0391 44.9414 21.3359C43.6445 22.6328 41.8398 23.2812 39.5273 23.2812C37.0586 23.2812 35.1055 22.4961 33.668 20.9258C32.2383 19.3477 31.5234 17.1992 31.5234 14.4805C31.5234 11.8008 32.2344 9.6875 33.6562 8.14062C35.0859 6.58594 37.0234 5.80859 39.4688 5.80859C41.3906 5.80859 43.0195 6.32812 44.3555 7.36719C45.6914 8.40625 46.4961 9.77344 46.7695 11.4688H43.6992C43.4102 10.5 42.8945 9.74219 42.1523 9.19531C41.4102 8.64844 40.5195 8.375 39.4805 8.375C37.957 8.375 36.7656 8.91016 35.9062 9.98047C35.0469 11.0508 34.6172 12.5391 34.6172 14.4453C34.6172 16.3906 35.0586 17.9219 35.9414 19.0391C36.832 20.1562 38.0391 20.7148 39.5625 20.7148C40.8359 20.7148 41.875 20.3477 42.6797 19.6133C43.4922 18.8789 43.9102 17.918 43.9336 16.7305L43.9453 16.4492H39.8672V14.1406H46.8984V15.9453ZM56.8242 5.80859C59.2852 5.80859 61.2344 6.59375 62.6719 8.16406C64.1172 9.73438 64.8398 11.8633 64.8398 14.5508C64.8398 17.2383 64.1172 19.3672 62.6719 20.9375C61.2344 22.5 59.2852 23.2812 56.8242 23.2812C54.3555 23.2812 52.3984 22.5 50.9531 20.9375C49.5156 19.3672 48.7969 17.2383 48.7969 14.5508C48.7969 11.8633 49.5156 9.73438 50.9531 8.16406C52.3984 6.59375 54.3555 5.80859 56.8242 5.80859ZM60.4219 10.0625C59.5312 8.94531 58.332 8.38672 56.8242 8.38672C55.3164 8.38672 54.1172 8.94141 53.2266 10.0508C52.3359 11.1602 51.8906 12.6602 51.8906 14.5508C51.8906 16.4336 52.3359 17.9297 53.2266 19.0391C54.1172 20.1484 55.3164 20.7031 56.8242 20.7031C58.332 20.7031 59.5312 20.1484 60.4219 19.0391C61.3125 17.9297 61.7578 16.4336 61.7578 14.5508C61.7578 12.668 61.3125 11.1719 60.4219 10.0625ZM73.5 23H70.4766V8.64453H65.3438V6.08984H78.6328V8.64453H73.5V23ZM88.4531 23H85.4414V16.332L79.5117 6.08984H82.8281L86.9297 13.4492H87L91.0898 6.08984H94.3828L88.4531 16.332V23ZM96.1992 6.08984H103.02C104.699 6.08984 106.066 6.61328 107.121 7.66016C108.176 8.70703 108.703 10.0703 108.703 11.75C108.703 13.4297 108.164 14.793 107.086 15.8398C106.008 16.8867 104.609 17.4102 102.891 17.4102H99.2227V23H96.1992V6.08984ZM99.2227 8.5625V14.9727H102.211C103.297 14.9727 104.137 14.6914 104.73 14.1289C105.332 13.5664 105.633 12.7734 105.633 11.75C105.633 10.7344 105.336 9.94922 104.742 9.39453C104.148 8.83984 103.309 8.5625 102.223 8.5625H99.2227ZM121.863 20.4453V23H110.918V6.08984H121.863V8.64453H113.941V13.2148H121.43V15.6172H113.941V20.4453H121.863Z" fill="black"/>
</svg>
